<?xml version="1.0" encoding="UTF-8" standalone="no"?>
<!DOCTYPE svg PUBLIC "-//W3C//DTD SVG 1.1//EN"
 "http://www.w3.org/Graphics/SVG/1.1/DTD/svg11.dtd">
<!-- Generated by graphviz version 13.0.1 (20250615.1724)
 -->
<!-- Title: family_tree Pages: 1 -->
<svg width="978pt" height="400pt"
 viewBox="7.00 7.00 971.00 393.00" xmlns="http://www.w3.org/2000/svg" xmlns:xlink="http://www.w3.org/1999/xlink">
<g id="graph0" class="graph" transform="scale(1 1) rotate(0) translate(14.4 385.65)">
<title>family_tree</title>
<polygon fill="white" stroke="none" points="-7.2,7.2 -7.2,-378.45 956.48,-378.45 956.48,7.2 -7.2,7.2"/>
<!-- G0_ME -->
<g id="node1" class="node tree&#45;connection">
<title>G0_ME</title>
<g id="a_node1"><a xlink:href="https://www.findagrave.com/memorial/37194034/george-beall" xlink:title="Col. George Beall, II 🔗\nb. 1729, DC\nd. 1807, DC" target="_blank">
<path fill="gold" stroke="black" d="M402.27,-60.65C402.27,-60.65 303.88,-60.65 303.88,-60.65 297.88,-60.65 291.88,-54.65 291.88,-48.65 291.88,-48.65 291.88,-20 291.88,-20 291.88,-14 297.88,-8 303.88,-8 303.88,-8 402.27,-8 402.27,-8 408.27,-8 414.27,-14 414.27,-20 414.27,-20 414.27,-48.65 414.27,-48.65 414.27,-54.65 408.27,-60.65 402.27,-60.65"/>
<path fill="none" stroke="black" d="M406.27,-64.65C406.27,-64.65 299.88,-64.65 299.88,-64.65 293.88,-64.65 287.88,-58.65 287.88,-52.65 287.88,-52.65 287.88,-16 287.88,-16 287.88,-10 293.88,-4 299.88,-4 299.88,-4 406.27,-4 406.27,-4 412.27,-4 418.27,-10 418.27,-16 418.27,-16 418.27,-52.65 418.27,-52.65 418.27,-58.65 412.27,-64.65 406.27,-64.65"/>
<path fill="none" stroke="black" d="M410.27,-68.65C410.27,-68.65 295.88,-68.65 295.88,-68.65 289.88,-68.65 283.88,-62.65 283.88,-56.65 283.88,-56.65 283.88,-12 283.88,-12 283.88,-6 289.88,0 295.88,0 295.88,0 410.27,0 410.27,0 416.27,0 422.27,-6 422.27,-12 422.27,-12 422.27,-56.65 422.27,-56.65 422.27,-62.65 416.27,-68.65 410.27,-68.65"/>
<text xml:space="preserve" text-anchor="middle" x="353.07" y="-43.95" font-family="Arial Bold" font-size="10.00">Col. George Beall, II 🔗</text>
<text xml:space="preserve" text-anchor="middle" x="353.07" y="-29.7" font-family="Arial Bold" font-size="10.00">b. 1729, DC</text>
<text xml:space="preserve" text-anchor="middle" x="353.07" y="-17.7" font-family="Arial Bold" font-size="10.00">d. 1807, DC</text>
</a>
</g>
</g>
<!-- G0_SPOUSE -->
<g id="node2" class="node tree&#45;connection">
<title>G0_SPOUSE</title>
<g id="a_node2"><a xlink:href="https://www.findagrave.com/memorial/37194034/george-beall" xlink:title="Elizabeth Magruder 🔗\nb. 1733\nd. 1774" target="_blank">
<path fill="gold" stroke="black" d="M583.03,-60.65C583.03,-60.65 489.13,-60.65 489.13,-60.65 483.13,-60.65 477.13,-54.65 477.13,-48.65 477.13,-48.65 477.13,-20 477.13,-20 477.13,-14 483.13,-8 489.13,-8 489.13,-8 583.03,-8 583.03,-8 589.03,-8 595.03,-14 595.03,-20 595.03,-20 595.03,-48.65 595.03,-48.65 595.03,-54.65 589.03,-60.65 583.03,-60.65"/>
<path fill="none" stroke="black" d="M587.03,-64.65C587.03,-64.65 485.13,-64.65 485.13,-64.65 479.13,-64.65 473.13,-58.65 473.13,-52.65 473.13,-52.65 473.13,-16 473.13,-16 473.13,-10 479.13,-4 485.13,-4 485.13,-4 587.03,-4 587.03,-4 593.03,-4 599.03,-10 599.03,-16 599.03,-16 599.03,-52.65 599.03,-52.65 599.03,-58.65 593.03,-64.65 587.03,-64.65"/>
<path fill="none" stroke="black" d="M591.03,-68.65C591.03,-68.65 481.12,-68.65 481.12,-68.65 475.12,-68.65 469.12,-62.65 469.12,-56.65 469.12,-56.65 469.12,-12 469.12,-12 469.12,-6 475.12,0 481.12,0 481.12,0 591.03,0 591.03,0 597.03,0 603.03,-6 603.03,-12 603.03,-12 603.03,-56.65 603.03,-56.65 603.03,-62.65 597.03,-68.65 591.03,-68.65"/>
<text xml:space="preserve" text-anchor="middle" x="536.08" y="-43.95" font-family="Arial Bold" font-size="10.00">Elizabeth Magruder 🔗</text>
<text xml:space="preserve" text-anchor="middle" x="536.08" y="-29.7" font-family="Arial Bold" font-size="10.00">b. 1733</text>
<text xml:space="preserve" text-anchor="middle" x="536.08" y="-17.7" font-family="Arial Bold" font-size="10.00">d. 1774</text>
</a>
</g>
</g>
<!-- G0_ME&#45;&gt;G0_SPOUSE -->
<g id="edge1" class="edge">
<title>G0_ME&#45;&gt;G0_SPOUSE</title>
<path fill="none" stroke="black" stroke-width="1.5" stroke-dasharray="5,2" d="M422.52,-34.33C437.69,-34.33 453.71,-34.33 468.79,-34.33"/>
<text xml:space="preserve" text-anchor="middle" x="445.7" y="-39.08" font-family="Times,serif" font-size="10.00">m. 1748</text>
</g>
<!-- G1_FATHER -->
<g id="node3" class="node">
<title>G1_FATHER</title>
<g id="a_node3"><a xlink:href="https://www.geni.com/people/Capt-Alexander-Magruder/6000000012611507676" xlink:title="Capt. Alexander Magruder 🔗\nb. 1706, MD\nd. 1751, MD" target="_blank">
<path fill="lightcoral" stroke="black" d="M426.27,-144.3C426.27,-144.3 309.88,-144.3 309.88,-144.3 303.88,-144.3 297.88,-138.3 297.88,-132.3 297.88,-132.3 297.88,-103.65 297.88,-103.65 297.88,-97.65 303.88,-91.65 309.88,-91.65 309.88,-91.65 426.27,-91.65 426.27,-91.65 432.27,-91.65 438.27,-97.65 438.27,-103.65 438.27,-103.65 438.27,-132.3 438.27,-132.3 438.27,-138.3 432.27,-144.3 426.27,-144.3"/>
<text xml:space="preserve" text-anchor="middle" x="368.07" y="-127.6" font-family="Arial" font-size="10.00">Capt. Alexander Magruder 🔗</text>
<text xml:space="preserve" text-anchor="middle" x="368.07" y="-113.35" font-family="Arial" font-size="10.00">b. 1706, MD</text>
<text xml:space="preserve" text-anchor="middle" x="368.07" y="-101.35" font-family="Arial" font-size="10.00">d. 1751, MD</text>
</a>
</g>
</g>
<!-- G1_FATHER&#45;&gt;G0_SPOUSE -->
<g id="edge9" class="edge">
<title>G1_FATHER&#45;&gt;G0_SPOUSE</title>
<path fill="none" stroke="black" stroke-width="1.5" d="M420.77,-91.36C432.53,-85.65 445.24,-79.47 457.79,-73.37"/>
<polygon fill="black" stroke="black" stroke-width="1.5" points="459.23,-76.56 466.7,-69.04 456.17,-70.27 459.23,-76.56"/>
</g>
<!-- G1_MOTHER -->
<g id="node4" class="node">
<title>G1_MOTHER</title>
<g id="a_node4"><a xlink:href="https://www.geni.com/people/Ann-Magruder/6000000008248491315" xlink:title="Ann Wade 🔗\nb. ~1708, MD\nd. after 1752, MD" target="_blank">
<path fill="lightcoral" stroke="black" d="M627.53,-144.3C627.53,-144.3 560.62,-144.3 560.62,-144.3 554.62,-144.3 548.62,-138.3 548.62,-132.3 548.62,-132.3 548.62,-103.65 548.62,-103.65 548.62,-97.65 554.62,-91.65 560.62,-91.65 560.62,-91.65 627.53,-91.65 627.53,-91.65 633.53,-91.65 639.53,-97.65 639.53,-103.65 639.53,-103.65 639.53,-132.3 639.53,-132.3 639.53,-138.3 633.53,-144.3 627.53,-144.3"/>
<text xml:space="preserve" text-anchor="middle" x="594.08" y="-127.6" font-family="Arial" font-size="10.00">Ann Wade 🔗</text>
<text xml:space="preserve" text-anchor="middle" x="594.08" y="-113.35" font-family="Arial" font-size="10.00">b. ~1708, MD</text>
<text xml:space="preserve" text-anchor="middle" x="594.08" y="-101.35" font-family="Arial" font-size="10.00">d. after 1752, MD</text>
</a>
</g>
</g>
<!-- G1_FATHER&#45;&gt;G1_MOTHER -->
<g id="edge2" class="edge">
<title>G1_FATHER&#45;&gt;G1_MOTHER</title>
<path fill="none" stroke="black" stroke-width="1.5" stroke-dasharray="5,2" d="M438.7,-117.98C475.22,-117.98 511.73,-117.98 548.25,-117.98"/>
</g>
<!-- G1_MOTHER&#45;&gt;G0_SPOUSE -->
<g id="edge10" class="edge">
<title>G1_MOTHER&#45;&gt;G0_SPOUSE</title>
<path fill="none" stroke="black" stroke-width="1.5" d="M576.04,-91.59C573.2,-87.59 570.19,-83.35 567.15,-79.07"/>
<polygon fill="black" stroke="black" stroke-width="1.5" points="570.03,-77.08 561.38,-70.95 564.32,-81.13 570.03,-77.08"/>
</g>
<!-- G2_MAGRUDER -->
<g id="node5" class="node">
<title>G2_MAGRUDER</title>
<g id="a_node5"><a xlink:href="https://www.geni.com/people/Col-Samuel-Magruder/5358724398280112491" xlink:title="Col. Samuel Magruder 🔗\nb. 1661, MD\nd. 1711, MD" target="_blank">
<path fill="lightsteelblue" stroke="black" d="M242.4,-219.95C242.4,-219.95 141.75,-219.95 141.75,-219.95 135.75,-219.95 129.75,-213.95 129.75,-207.95 129.75,-207.95 129.75,-179.3 129.75,-179.3 129.75,-173.3 135.75,-167.3 141.75,-167.3 141.75,-167.3 242.4,-167.3 242.4,-167.3 248.4,-167.3 254.4,-173.3 254.4,-179.3 254.4,-179.3 254.4,-207.95 254.4,-207.95 254.4,-213.95 248.4,-219.95 242.4,-219.95"/>
<text xml:space="preserve" text-anchor="middle" x="192.07" y="-203.25" font-family="Arial" font-size="10.00">Col. Samuel Magruder 🔗</text>
<text xml:space="preserve" text-anchor="middle" x="192.07" y="-189" font-family="Arial" font-size="10.00">b. 1661, MD</text>
<text xml:space="preserve" text-anchor="middle" x="192.07" y="-177" font-family="Arial" font-size="10.00">d. 1711, MD</text>
</a>
</g>
</g>
<!-- G2_MAGRUDER&#45;&gt;G1_FATHER -->
<g id="edge11" class="edge">
<title>G2_MAGRUDER&#45;&gt;G1_FATHER</title>
<path fill="none" stroke="black" stroke-width="1.5" d="M253.63,-166.87C267.16,-161.2 281.61,-155.16 295.53,-149.33"/>
<polygon fill="black" stroke="black" stroke-width="1.5" points="296.59,-152.69 304.46,-145.6 293.88,-146.23 296.59,-152.69"/>
</g>
<!-- G2_MILLS -->
<g id="node6" class="node">
<title>G2_MILLS</title>
<g id="a_node6"><a xlink:href="https://www.geni.com/people/Sarah-Magruder/6000000006900951171" xlink:title="Sarah Mills 🔗\nb. ~1670, MD\nd. 1734, MD" target="_blank">
<path fill="lightsteelblue" stroke="black" d="M394.02,-219.95C394.02,-219.95 342.12,-219.95 342.12,-219.95 336.12,-219.95 330.12,-213.95 330.12,-207.95 330.12,-207.95 330.12,-179.3 330.12,-179.3 330.12,-173.3 336.12,-167.3 342.12,-167.3 342.12,-167.3 394.02,-167.3 394.02,-167.3 400.02,-167.3 406.02,-173.3 406.02,-179.3 406.02,-179.3 406.02,-207.95 406.02,-207.95 406.02,-213.95 400.02,-219.95 394.02,-219.95"/>
<text xml:space="preserve" text-anchor="middle" x="368.07" y="-203.25" font-family="Arial" font-size="10.00">Sarah Mills 🔗</text>
<text xml:space="preserve" text-anchor="middle" x="368.07" y="-189" font-family="Arial" font-size="10.00">b. ~1670, MD</text>
<text xml:space="preserve" text-anchor="middle" x="368.07" y="-177" font-family="Arial" font-size="10.00">d. 1734, MD</text>
</a>
</g>
</g>
<!-- G2_MAGRUDER&#45;&gt;G2_MILLS -->
<g id="edge3" class="edge">
<title>G2_MAGRUDER&#45;&gt;G2_MILLS</title>
<path fill="none" stroke="black" stroke-width="1.5" stroke-dasharray="5,2" d="M254.64,-193.62C279.75,-193.62 304.86,-193.62 329.97,-193.62"/>
</g>
<!-- G2_MILLS&#45;&gt;G1_FATHER -->
<g id="edge12" class="edge">
<title>G2_MILLS&#45;&gt;G1_FATHER</title>
<path fill="none" stroke="black" stroke-width="1.5" d="M368.07,-166.87C368.07,-163.44 368.07,-159.88 368.07,-156.31"/>
<polygon fill="black" stroke="black" stroke-width="1.5" points="371.58,-156.62 368.08,-146.62 364.58,-156.62 371.58,-156.62"/>
</g>
<!-- G2_WADE -->
<g id="node7" class="node">
<title>G2_WADE</title>
<g id="a_node7"><a xlink:href="https://www.geni.com/people/Robert-Wade-Justice-of-Prince-George-s-County-Maryland/6000000008248491383" xlink:title="Robert Wade 🔗\nb. 1666, MD\nd. 1713, MD" target="_blank">
<path fill="lightsteelblue" stroke="black" d="M624.15,-219.95C624.15,-219.95 564,-219.95 564,-219.95 558,-219.95 552,-213.95 552,-207.95 552,-207.95 552,-179.3 552,-179.3 552,-173.3 558,-167.3 564,-167.3 564,-167.3 624.15,-167.3 624.15,-167.3 630.15,-167.3 636.15,-173.3 636.15,-179.3 636.15,-179.3 636.15,-207.95 636.15,-207.95 636.15,-213.95 630.15,-219.95 624.15,-219.95"/>
<text xml:space="preserve" text-anchor="middle" x="594.08" y="-203.25" font-family="Arial" font-size="10.00">Robert Wade 🔗</text>
<text xml:space="preserve" text-anchor="middle" x="594.08" y="-189" font-family="Arial" font-size="10.00">b. 1666, MD</text>
<text xml:space="preserve" text-anchor="middle" x="594.08" y="-177" font-family="Arial" font-size="10.00">d. 1713, MD</text>
</a>
</g>
</g>
<!-- G2_WADE&#45;&gt;G1_MOTHER -->
<g id="edge13" class="edge">
<title>G2_WADE&#45;&gt;G1_MOTHER</title>
<path fill="none" stroke="black" stroke-width="1.5" d="M594.08,-166.87C594.08,-163.44 594.08,-159.88 594.08,-156.31"/>
<polygon fill="black" stroke="black" stroke-width="1.5" points="597.58,-156.62 594.08,-146.62 590.58,-156.62 597.58,-156.62"/>
</g>
<!-- G2_SPRIGG -->
<g id="node8" class="node">
<title>G2_SPRIGG</title>
<g id="a_node8"><a xlink:href="https://www.geni.com/people/Elizabeth-Wade/6000000000652560041" xlink:title="Elizabeth Sprigg 🔗\nb. 1679, MD\nd. 1713, MD" target="_blank">
<path fill="lightsteelblue" stroke="black" d="M754.28,-219.95C754.28,-219.95 679.88,-219.95 679.88,-219.95 673.88,-219.95 667.88,-213.95 667.88,-207.95 667.88,-207.95 667.88,-179.3 667.88,-179.3 667.88,-173.3 673.88,-167.3 679.88,-167.3 679.88,-167.3 754.28,-167.3 754.28,-167.3 760.28,-167.3 766.28,-173.3 766.28,-179.3 766.28,-179.3 766.28,-207.95 766.28,-207.95 766.28,-213.95 760.28,-219.95 754.28,-219.95"/>
<text xml:space="preserve" text-anchor="middle" x="717.08" y="-203.25" font-family="Arial" font-size="10.00">Elizabeth Sprigg 🔗</text>
<text xml:space="preserve" text-anchor="middle" x="717.08" y="-189" font-family="Arial" font-size="10.00">b. 1679, MD</text>
<text xml:space="preserve" text-anchor="middle" x="717.08" y="-177" font-family="Arial" font-size="10.00">d. 1713, MD</text>
</a>
</g>
</g>
<!-- G2_WADE&#45;&gt;G2_SPRIGG -->
<g id="edge4" class="edge">
<title>G2_WADE&#45;&gt;G2_SPRIGG</title>
<path fill="none" stroke="black" stroke-width="1.5" stroke-dasharray="5,2" d="M636.36,-193.62C646.76,-193.62 657.17,-193.62 667.57,-193.62"/>
</g>
<!-- G2_SPRIGG&#45;&gt;G1_MOTHER -->
<g id="edge14" class="edge">
<title>G2_SPRIGG&#45;&gt;G1_MOTHER</title>
<path fill="none" stroke="black" stroke-width="1.5" d="M674.06,-166.87C665.39,-161.68 656.19,-156.17 647.23,-150.8"/>
<polygon fill="black" stroke="black" stroke-width="1.5" points="649.19,-147.9 638.81,-145.76 645.59,-153.9 649.19,-147.9"/>
</g>
<!-- G3_MAGRUDER -->
<g id="node9" class="node">
<title>G3_MAGRUDER</title>
<g id="a_node9"><a xlink:href="https://www.geni.com/people/Alexander-Magruder/6000000003023599662" xlink:title="Alexander Magruder 🔗\nb. 1610, Scotland\nd. 1677, MD" target="_blank">
<path fill="lightgreen" stroke="black" d="M102.15,-295.6C102.15,-295.6 12,-295.6 12,-295.6 6,-295.6 0,-289.6 0,-283.6 0,-283.6 0,-254.95 0,-254.95 0,-248.95 6,-242.95 12,-242.95 12,-242.95 102.15,-242.95 102.15,-242.95 108.15,-242.95 114.15,-248.95 114.15,-254.95 114.15,-254.95 114.15,-283.6 114.15,-283.6 114.15,-289.6 108.15,-295.6 102.15,-295.6"/>
<text xml:space="preserve" text-anchor="middle" x="57.08" y="-278.9" font-family="Arial" font-size="10.00">Alexander Magruder 🔗</text>
<text xml:space="preserve" text-anchor="middle" x="57.08" y="-264.65" font-family="Arial" font-size="10.00">b. 1610, Scotland</text>
<text xml:space="preserve" text-anchor="middle" x="57.08" y="-252.65" font-family="Arial" font-size="10.00">d. 1677, MD</text>
</a>
</g>
</g>
<!-- G3_MAGRUDER&#45;&gt;G2_MAGRUDER -->
<g id="edge15" class="edge">
<title>G3_MAGRUDER&#45;&gt;G2_MAGRUDER</title>
<path fill="none" stroke="black" stroke-width="1.5" d="M104.29,-242.52C114.01,-237.22 124.34,-231.58 134.38,-226.1"/>
<polygon fill="black" stroke="black" stroke-width="1.5" points="136.02,-229.19 143.12,-221.33 132.67,-223.05 136.02,-229.19"/>
</g>
<!-- G3_UNKNOWN -->
<g id="node10" class="node">
<title>G3_UNKNOWN</title>
<g id="a_node10"><a xlink:href="https://www.geni.com/people/Sarah-Magruder/6000000041118402554" xlink:title="Sarah [unknown] 🔗\nb. 1635, England\nd. 1711, MD" target="_blank">
<path fill="lightgreen" stroke="black" d="M230.4,-295.6C230.4,-295.6 153.75,-295.6 153.75,-295.6 147.75,-295.6 141.75,-289.6 141.75,-283.6 141.75,-283.6 141.75,-254.95 141.75,-254.95 141.75,-248.95 147.75,-242.95 153.75,-242.95 153.75,-242.95 230.4,-242.95 230.4,-242.95 236.4,-242.95 242.4,-248.95 242.4,-254.95 242.4,-254.95 242.4,-283.6 242.4,-283.6 242.4,-289.6 236.4,-295.6 230.4,-295.6"/>
<text xml:space="preserve" text-anchor="middle" x="192.07" y="-278.9" font-family="Arial" font-size="10.00">Sarah [unknown] 🔗</text>
<text xml:space="preserve" text-anchor="middle" x="192.07" y="-264.65" font-family="Arial" font-size="10.00">b. 1635, England</text>
<text xml:space="preserve" text-anchor="middle" x="192.07" y="-252.65" font-family="Arial" font-size="10.00">d. 1711, MD</text>
</a>
</g>
</g>
<!-- G3_MAGRUDER&#45;&gt;G3_UNKNOWN -->
<g id="edge5" class="edge">
<title>G3_MAGRUDER&#45;&gt;G3_UNKNOWN</title>
<path fill="none" stroke="black" stroke-width="1.5" stroke-dasharray="5,2" d="M114.56,-269.27C123.54,-269.27 132.52,-269.27 141.51,-269.27"/>
</g>
<!-- G3_UNKNOWN&#45;&gt;G2_MAGRUDER -->
<g id="edge16" class="edge">
<title>G3_UNKNOWN&#45;&gt;G2_MAGRUDER</title>
<path fill="none" stroke="black" stroke-width="1.5" d="M192.07,-242.52C192.07,-239.09 192.07,-235.53 192.07,-231.96"/>
<polygon fill="black" stroke="black" stroke-width="1.5" points="195.58,-232.27 192.08,-222.27 188.58,-232.27 195.58,-232.27"/>
</g>
<!-- G3_MILLS -->
<g id="node11" class="node">
<title>G3_MILLS</title>
<g id="a_node11"><a xlink:href="https://www.geni.com/people/William-Mills/6000000004086559494" xlink:title="William Samuel(?) Mills 🔗\nb. 1637, England\nd. 1676, MD" target="_blank">
<path fill="lightgreen" stroke="black" d="M374.02,-295.6C374.02,-295.6 268.12,-295.6 268.12,-295.6 262.12,-295.6 256.12,-289.6 256.12,-283.6 256.12,-283.6 256.12,-254.95 256.12,-254.95 256.12,-248.95 262.12,-242.95 268.12,-242.95 268.12,-242.95 374.02,-242.95 374.02,-242.95 380.02,-242.95 386.02,-248.95 386.02,-254.95 386.02,-254.95 386.02,-283.6 386.02,-283.6 386.02,-289.6 380.02,-295.6 374.02,-295.6"/>
<text xml:space="preserve" text-anchor="middle" x="321.07" y="-278.9" font-family="Arial" font-size="10.00">William Samuel(?) Mills 🔗</text>
<text xml:space="preserve" text-anchor="middle" x="321.07" y="-264.65" font-family="Arial" font-size="10.00">b. 1637, England</text>
<text xml:space="preserve" text-anchor="middle" x="321.07" y="-252.65" font-family="Arial" font-size="10.00">d. 1676, MD</text>
</a>
</g>
</g>
<!-- G3_MILLS&#45;&gt;G2_MILLS -->
<g id="edge17" class="edge">
<title>G3_MILLS&#45;&gt;G2_MILLS</title>
<path fill="none" stroke="black" stroke-width="1.5" d="M337.51,-242.52C340.06,-238.52 342.73,-234.34 345.39,-230.18"/>
<polygon fill="black" stroke="black" stroke-width="1.5" points="348.23,-232.22 350.66,-221.91 342.33,-228.46 348.23,-232.22"/>
</g>
<!-- G3_WRIGHT -->
<g id="node12" class="node">
<title>G3_WRIGHT</title>
<g id="a_node12"><a xlink:href="https://www.geni.com/people/Tabitha-Blanford/6000000004086559502" xlink:title="Tabitha Wright 🔗\nb. before 1647, England\nd. 1700, MD" target="_blank">
<path fill="lightgreen" stroke="black" d="M519.02,-295.6C519.02,-295.6 425.12,-295.6 425.12,-295.6 419.12,-295.6 413.12,-289.6 413.12,-283.6 413.12,-283.6 413.12,-254.95 413.12,-254.95 413.12,-248.95 419.12,-242.95 425.12,-242.95 425.12,-242.95 519.02,-242.95 519.02,-242.95 525.02,-242.95 531.02,-248.95 531.02,-254.95 531.02,-254.95 531.02,-283.6 531.02,-283.6 531.02,-289.6 525.02,-295.6 519.02,-295.6"/>
<text xml:space="preserve" text-anchor="middle" x="472.07" y="-278.9" font-family="Arial" font-size="10.00">Tabitha Wright 🔗</text>
<text xml:space="preserve" text-anchor="middle" x="472.07" y="-264.65" font-family="Arial" font-size="10.00">b. before 1647, England</text>
<text xml:space="preserve" text-anchor="middle" x="472.07" y="-252.65" font-family="Arial" font-size="10.00">d. 1700, MD</text>
</a>
</g>
</g>
<!-- G3_MILLS&#45;&gt;G3_WRIGHT -->
<g id="edge6" class="edge">
<title>G3_MILLS&#45;&gt;G3_WRIGHT</title>
<path fill="none" stroke="black" stroke-width="1.5" stroke-dasharray="5,2" d="M386.25,-269.27C395.08,-269.27 403.91,-269.27 412.74,-269.27"/>
</g>
<!-- G3_WRIGHT&#45;&gt;G2_MILLS -->
<g id="edge18" class="edge">
<title>G3_WRIGHT&#45;&gt;G2_MILLS</title>
<path fill="none" stroke="black" stroke-width="1.5" d="M435.7,-242.52C428.69,-237.55 421.27,-232.3 414.01,-227.15"/>
<polygon fill="black" stroke="black" stroke-width="1.5" points="416.29,-224.48 406.11,-221.56 412.24,-230.19 416.29,-224.48"/>
</g>
<!-- G3_WADE -->
<g id="node13" class="node">
<title>G3_WADE</title>
<g id="a_node13"><a xlink:href="https://www.geni.com/people/Zachary-Zacharias-Wade/6000000003682959866" xlink:title="Zacharias Wade 🔗\nb. 1627, England\nd. 1677, MD" target="_blank">
<path fill="lightgreen" stroke="black" d="M630.9,-295.6C630.9,-295.6 557.25,-295.6 557.25,-295.6 551.25,-295.6 545.25,-289.6 545.25,-283.6 545.25,-283.6 545.25,-254.95 545.25,-254.95 545.25,-248.95 551.25,-242.95 557.25,-242.95 557.25,-242.95 630.9,-242.95 630.9,-242.95 636.9,-242.95 642.9,-248.95 642.9,-254.95 642.9,-254.95 642.9,-283.6 642.9,-283.6 642.9,-289.6 636.9,-295.6 630.9,-295.6"/>
<text xml:space="preserve" text-anchor="middle" x="594.08" y="-278.9" font-family="Arial" font-size="10.00">Zacharias Wade 🔗</text>
<text xml:space="preserve" text-anchor="middle" x="594.08" y="-264.65" font-family="Arial" font-size="10.00">b. 1627, England</text>
<text xml:space="preserve" text-anchor="middle" x="594.08" y="-252.65" font-family="Arial" font-size="10.00">d. 1677, MD</text>
</a>
</g>
</g>
<!-- G3_WADE&#45;&gt;G2_WADE -->
<g id="edge19" class="edge">
<title>G3_WADE&#45;&gt;G2_WADE</title>
<path fill="none" stroke="black" stroke-width="1.5" d="M594.08,-242.52C594.08,-239.09 594.08,-235.53 594.08,-231.96"/>
<polygon fill="black" stroke="black" stroke-width="1.5" points="597.58,-232.27 594.08,-222.27 590.58,-232.27 597.58,-232.27"/>
</g>
<!-- G3_SPRIGG -->
<g id="node14" class="node">
<title>G3_SPRIGG</title>
<g id="a_node14"><a xlink:href="https://www.geni.com/people/Capt-Thomas-Sprigg/6000000002183087243" xlink:title="Capt. Thomas Sprigg 🔗\nb. 1704, England\nd. 1704, MD" target="_blank">
<path fill="lightgreen" stroke="black" d="M764.78,-295.6C764.78,-295.6 669.38,-295.6 669.38,-295.6 663.38,-295.6 657.38,-289.6 657.38,-283.6 657.38,-283.6 657.38,-254.95 657.38,-254.95 657.38,-248.95 663.38,-242.95 669.38,-242.95 669.38,-242.95 764.78,-242.95 764.78,-242.95 770.78,-242.95 776.78,-248.95 776.78,-254.95 776.78,-254.95 776.78,-283.6 776.78,-283.6 776.78,-289.6 770.78,-295.6 764.78,-295.6"/>
<text xml:space="preserve" text-anchor="middle" x="717.08" y="-278.9" font-family="Arial" font-size="10.00">Capt. Thomas Sprigg 🔗</text>
<text xml:space="preserve" text-anchor="middle" x="717.08" y="-264.65" font-family="Arial" font-size="10.00">b. 1704, England</text>
<text xml:space="preserve" text-anchor="middle" x="717.08" y="-252.65" font-family="Arial" font-size="10.00">d. 1704, MD</text>
</a>
</g>
</g>
<!-- G3_SPRIGG&#45;&gt;G2_SPRIGG -->
<g id="edge20" class="edge">
<title>G3_SPRIGG&#45;&gt;G2_SPRIGG</title>
<path fill="none" stroke="black" stroke-width="1.5" d="M717.08,-242.52C717.08,-239.09 717.08,-235.53 717.08,-231.96"/>
<polygon fill="black" stroke="black" stroke-width="1.5" points="720.58,-232.27 717.08,-222.27 713.58,-232.27 720.58,-232.27"/>
</g>
<!-- G3_NUTHALL -->
<g id="node15" class="node">
<title>G3_NUTHALL</title>
<g id="a_node15"><a xlink:href="https://freepages.rootsweb.com/~codd/genealogy/nuthall9.14.pdf" xlink:title="Eleanor Nuthall 🔗\nb. ~1646, MD\nd. 1699, MD" target="_blank">
<path fill="lightgreen" stroke="black" d="M886.03,-295.6C886.03,-295.6 816.12,-295.6 816.12,-295.6 810.12,-295.6 804.12,-289.6 804.12,-283.6 804.12,-283.6 804.12,-254.95 804.12,-254.95 804.12,-248.95 810.12,-242.95 816.12,-242.95 816.12,-242.95 886.03,-242.95 886.03,-242.95 892.03,-242.95 898.03,-248.95 898.03,-254.95 898.03,-254.95 898.03,-283.6 898.03,-283.6 898.03,-289.6 892.03,-295.6 886.03,-295.6"/>
<text xml:space="preserve" text-anchor="middle" x="851.08" y="-278.9" font-family="Arial" font-size="10.00">Eleanor Nuthall 🔗</text>
<text xml:space="preserve" text-anchor="middle" x="851.08" y="-264.65" font-family="Arial" font-size="10.00">b. ~1646, MD</text>
<text xml:space="preserve" text-anchor="middle" x="851.08" y="-252.65" font-family="Arial" font-size="10.00">d. 1699, MD</text>
</a>
</g>
</g>
<!-- G3_SPRIGG&#45;&gt;G3_NUTHALL -->
<g id="edge7" class="edge">
<title>G3_SPRIGG&#45;&gt;G3_NUTHALL</title>
<path fill="none" stroke="black" stroke-width="1.5" stroke-dasharray="5,2" d="M777.27,-269.27C786.11,-269.27 794.95,-269.27 803.79,-269.27"/>
</g>
<!-- G3_NUTHALL&#45;&gt;G2_SPRIGG -->
<g id="edge21" class="edge">
<title>G3_NUTHALL&#45;&gt;G2_SPRIGG</title>
<path fill="none" stroke="black" stroke-width="1.5" d="M804.21,-242.52C794.56,-237.22 784.31,-231.58 774.34,-226.1"/>
<polygon fill="black" stroke="black" stroke-width="1.5" points="776.13,-223.09 765.68,-221.34 772.76,-229.22 776.13,-223.09"/>
</g>
<!-- G4_NUTHALL -->
<g id="node16" class="node">
<title>G4_NUTHALL</title>
<g id="a_node16"><a xlink:href="https://freepages.rootsweb.com/~codd/genealogy/nuthall9.14.pdf" xlink:title="John Nuthall 🔗\nb. ~1618, England\nd. 1667, MD" target="_blank">
<path fill="wheat" stroke="black" d="M811.03,-371.25C811.03,-371.25 741.12,-371.25 741.12,-371.25 735.12,-371.25 729.12,-365.25 729.12,-359.25 729.12,-359.25 729.12,-330.6 729.12,-330.6 729.12,-324.6 735.12,-318.6 741.12,-318.6 741.12,-318.6 811.03,-318.6 811.03,-318.6 817.03,-318.6 823.03,-324.6 823.03,-330.6 823.03,-330.6 823.03,-359.25 823.03,-359.25 823.03,-365.25 817.03,-371.25 811.03,-371.25"/>
<text xml:space="preserve" text-anchor="middle" x="776.08" y="-354.55" font-family="Arial" font-size="10.00">John Nuthall 🔗</text>
<text xml:space="preserve" text-anchor="middle" x="776.08" y="-340.3" font-family="Arial" font-size="10.00">b. ~1618, England</text>
<text xml:space="preserve" text-anchor="middle" x="776.08" y="-328.3" font-family="Arial" font-size="10.00">d. 1667, MD</text>
</a>
</g>
</g>
<!-- G4_NUTHALL&#45;&gt;G3_NUTHALL -->
<g id="edge22" class="edge">
<title>G4_NUTHALL&#45;&gt;G3_NUTHALL</title>
<path fill="none" stroke="black" stroke-width="1.5" d="M802.31,-318.17C806.9,-313.65 811.74,-308.9 816.52,-304.21"/>
<polygon fill="black" stroke="black" stroke-width="1.5" points="818.68,-306.99 823.37,-297.49 813.78,-302 818.68,-306.99"/>
</g>
<!-- G4_BACON -->
<g id="node17" class="node">
<title>G4_BACON</title>
<g id="a_node17"><a xlink:href="https://freepages.rootsweb.com/~codd/genealogy/nuthall9.14.pdf" xlink:title="Elizabeth Bacon 🔗\nb. ~1609, England\nd. ~1653&#45;1660, MD" target="_blank">
<path fill="wheat" stroke="black" d="M937.28,-371.25C937.28,-371.25 862.88,-371.25 862.88,-371.25 856.88,-371.25 850.88,-365.25 850.88,-359.25 850.88,-359.25 850.88,-330.6 850.88,-330.6 850.88,-324.6 856.88,-318.6 862.88,-318.6 862.88,-318.6 937.28,-318.6 937.28,-318.6 943.28,-318.6 949.28,-324.6 949.28,-330.6 949.28,-330.6 949.28,-359.25 949.28,-359.25 949.28,-365.25 943.28,-371.25 937.28,-371.25"/>
<text xml:space="preserve" text-anchor="middle" x="900.08" y="-354.55" font-family="Arial" font-size="10.00">Elizabeth Bacon 🔗</text>
<text xml:space="preserve" text-anchor="middle" x="900.08" y="-340.3" font-family="Arial" font-size="10.00">b. ~1609, England</text>
<text xml:space="preserve" text-anchor="middle" x="900.08" y="-328.3" font-family="Arial" font-size="10.00">d. ~1653&#45;1660, MD</text>
</a>
</g>
</g>
<!-- G4_NUTHALL&#45;&gt;G4_BACON -->
<g id="edge8" class="edge">
<title>G4_NUTHALL&#45;&gt;G4_BACON</title>
<path fill="none" stroke="black" stroke-width="1.5" stroke-dasharray="5,2" d="M823.06,-344.92C832.18,-344.92 841.31,-344.92 850.44,-344.92"/>
</g>
<!-- G4_BACON&#45;&gt;G3_NUTHALL -->
<g id="edge23" class="edge">
<title>G4_BACON&#45;&gt;G3_NUTHALL</title>
<path fill="none" stroke="black" stroke-width="1.5" d="M882.94,-318.17C880.28,-314.17 877.5,-309.99 874.73,-305.83"/>
<polygon fill="black" stroke="black" stroke-width="1.5" points="877.67,-303.92 869.21,-297.54 871.84,-307.8 877.67,-303.92"/>
</g>
</g>
</svg>
