<?xml version="1.0" encoding="UTF-8" standalone="no"?>
<!DOCTYPE svg PUBLIC "-//W3C//DTD SVG 1.1//EN"
 "http://www.w3.org/Graphics/SVG/1.1/DTD/svg11.dtd">
<!-- Generated by graphviz version 14.0.4 (20251115.1723)
 -->
<!-- Title: family_tree Pages: 1 -->
<svg width="918pt" height="492pt"
 viewBox="7.00 7.00 911.00 484.00" xmlns="http://www.w3.org/2000/svg" xmlns:xlink="http://www.w3.org/1999/xlink">
<g id="graph0" class="graph" transform="scale(1 1) rotate(0) translate(14.4 477.3)">
<title>family_tree</title>
<polygon fill="white" stroke="none" points="-7.2,7.2 -7.2,-470.1 896.35,-470.1 896.35,7.2 -7.2,7.2"/>
<!-- G0_ME -->
<g id="node1" class="node tree&#45;connection">
<title>G0_ME</title>
<g id="a_node1"><a xlink:href="https://ancestors.familysearch.org/en/K4X3-J43/charlotte-ann-brunk-ely-1842-1931" xlink:title="Charlotte Ann Brunk 🔗\nb. 1842, VA\nd. 1931, AR" target="_blank">
<path fill="gold" stroke="black" d="M566.78,-60.65C566.78,-60.65 467.63,-60.65 467.63,-60.65 461.63,-60.65 455.63,-54.65 455.63,-48.65 455.63,-48.65 455.63,-20 455.63,-20 455.63,-14 461.63,-8 467.63,-8 467.63,-8 566.78,-8 566.78,-8 572.78,-8 578.78,-14 578.78,-20 578.78,-20 578.78,-48.65 578.78,-48.65 578.78,-54.65 572.78,-60.65 566.78,-60.65"/>
<path fill="none" stroke="black" d="M570.78,-64.65C570.78,-64.65 463.62,-64.65 463.62,-64.65 457.62,-64.65 451.62,-58.65 451.62,-52.65 451.62,-52.65 451.62,-16 451.62,-16 451.62,-10 457.62,-4 463.62,-4 463.62,-4 570.78,-4 570.78,-4 576.78,-4 582.78,-10 582.78,-16 582.78,-16 582.78,-52.65 582.78,-52.65 582.78,-58.65 576.78,-64.65 570.78,-64.65"/>
<path fill="none" stroke="black" d="M574.78,-68.65C574.78,-68.65 459.62,-68.65 459.62,-68.65 453.62,-68.65 447.62,-62.65 447.62,-56.65 447.62,-56.65 447.62,-12 447.62,-12 447.62,-6 453.62,0 459.62,0 459.62,0 574.78,0 574.78,0 580.78,0 586.78,-6 586.78,-12 586.78,-12 586.78,-56.65 586.78,-56.65 586.78,-62.65 580.78,-68.65 574.78,-68.65"/>
<text xml:space="preserve" text-anchor="middle" x="517.2" y="-43.95" font-family="Arial Bold" font-size="10.00">Charlotte Ann Brunk 🔗</text>
<text xml:space="preserve" text-anchor="middle" x="517.2" y="-29.7" font-family="Arial Bold" font-size="10.00">b. 1842, VA</text>
<text xml:space="preserve" text-anchor="middle" x="517.2" y="-17.7" font-family="Arial Bold" font-size="10.00">d. 1931, AR</text>
</a>
</g>
</g>
<!-- G0_SPOUSE -->
<g id="node2" class="node tree&#45;connection">
<title>G0_SPOUSE</title>
<g id="a_node2"><a xlink:href="https://ancestors.familysearch.org/en/L89W-T4N/rev-robert-n-ely-1842-1880" xlink:title="Rev. Robert N. Ely 🔗\nb. 1842, VA\nd. 1880, AR" target="_blank">
<path fill="gold" stroke="black" d="M723.9,-60.65C723.9,-60.65 634.5,-60.65 634.5,-60.65 628.5,-60.65 622.5,-54.65 622.5,-48.65 622.5,-48.65 622.5,-20 622.5,-20 622.5,-14 628.5,-8 634.5,-8 634.5,-8 723.9,-8 723.9,-8 729.9,-8 735.9,-14 735.9,-20 735.9,-20 735.9,-48.65 735.9,-48.65 735.9,-54.65 729.9,-60.65 723.9,-60.65"/>
<path fill="none" stroke="black" d="M727.9,-64.65C727.9,-64.65 630.5,-64.65 630.5,-64.65 624.5,-64.65 618.5,-58.65 618.5,-52.65 618.5,-52.65 618.5,-16 618.5,-16 618.5,-10 624.5,-4 630.5,-4 630.5,-4 727.9,-4 727.9,-4 733.9,-4 739.9,-10 739.9,-16 739.9,-16 739.9,-52.65 739.9,-52.65 739.9,-58.65 733.9,-64.65 727.9,-64.65"/>
<path fill="none" stroke="black" d="M731.9,-68.65C731.9,-68.65 626.5,-68.65 626.5,-68.65 620.5,-68.65 614.5,-62.65 614.5,-56.65 614.5,-56.65 614.5,-12 614.5,-12 614.5,-6 620.5,0 626.5,0 626.5,0 731.9,0 731.9,0 737.9,0 743.9,-6 743.9,-12 743.9,-12 743.9,-56.65 743.9,-56.65 743.9,-62.65 737.9,-68.65 731.9,-68.65"/>
<text xml:space="preserve" text-anchor="middle" x="679.2" y="-43.95" font-family="Arial Bold" font-size="10.00">Rev. Robert N. Ely 🔗</text>
<text xml:space="preserve" text-anchor="middle" x="679.2" y="-29.7" font-family="Arial Bold" font-size="10.00">b. 1842, VA</text>
<text xml:space="preserve" text-anchor="middle" x="679.2" y="-17.7" font-family="Arial Bold" font-size="10.00">d. 1880, AR</text>
</a>
</g>
</g>
<!-- G0_ME&#45;&gt;G0_SPOUSE -->
<g id="edge1" class="edge">
<title>G0_ME&#45;&gt;G0_SPOUSE</title>
<path fill="none" stroke="black" stroke-width="1.5" stroke-dasharray="5,2" d="M587.13,-34.33C596.12,-34.33 605.11,-34.33 614.1,-34.33"/>
</g>
<!-- G1_FATHER -->
<g id="node3" class="node">
<title>G1_FATHER</title>
<g id="a_node3"><a xlink:href="https://ancestors.familysearch.org/en/L7FY-DXJ/christopher-%22christy%22-brunk-1810-1895" xlink:title="Christopher Brunk 🔗\nb. 1810, VA\nd. 1895, AR" target="_blank">
<path fill="lightcoral" stroke="black" d="M468.15,-152.3C468.15,-152.3 386.25,-152.3 386.25,-152.3 380.25,-152.3 374.25,-146.3 374.25,-140.3 374.25,-140.3 374.25,-111.65 374.25,-111.65 374.25,-105.65 380.25,-99.65 386.25,-99.65 386.25,-99.65 468.15,-99.65 468.15,-99.65 474.15,-99.65 480.15,-105.65 480.15,-111.65 480.15,-111.65 480.15,-140.3 480.15,-140.3 480.15,-146.3 474.15,-152.3 468.15,-152.3"/>
<text xml:space="preserve" text-anchor="middle" x="427.2" y="-135.6" font-family="Arial" font-size="10.00">Christopher Brunk 🔗</text>
<text xml:space="preserve" text-anchor="middle" x="427.2" y="-121.35" font-family="Arial" font-size="10.00">b. 1810, VA</text>
<text xml:space="preserve" text-anchor="middle" x="427.2" y="-109.35" font-family="Arial" font-size="10.00">d. 1895, AR</text>
</a>
</g>
</g>
<!-- G1_FATHER&#45;&gt;G0_ME -->
<g id="edge12" class="edge">
<title>G1_FATHER&#45;&gt;G0_ME</title>
<path fill="none" stroke="black" stroke-width="1.5" d="M452.75,-99.52C459.77,-92.53 467.58,-84.76 475.26,-77.1"/>
<polygon fill="black" stroke="black" stroke-width="1.5" points="477.29,-80.02 481.9,-70.48 472.35,-75.06 477.29,-80.02"/>
</g>
<!-- G1_MOTHER -->
<g id="node4" class="node tree&#45;connection">
<title>G1_MOTHER</title>
<g id="a_node4"><a xlink:href="https://ancestors.familysearch.org/en/L7GK-9QR/hannah-mcdonald-brunk-1810-1886" xlink:title="Hannah McDonald 🔗\nd. 1810, VA\nd. 1886, AR" target="_blank">
<path fill="lightcoral" stroke="black" d="M653.9,-152.3C653.9,-152.3 564.5,-152.3 564.5,-152.3 558.5,-152.3 552.5,-146.3 552.5,-140.3 552.5,-140.3 552.5,-111.65 552.5,-111.65 552.5,-105.65 558.5,-99.65 564.5,-99.65 564.5,-99.65 653.9,-99.65 653.9,-99.65 659.9,-99.65 665.9,-105.65 665.9,-111.65 665.9,-111.65 665.9,-140.3 665.9,-140.3 665.9,-146.3 659.9,-152.3 653.9,-152.3"/>
<path fill="none" stroke="black" d="M657.9,-156.3C657.9,-156.3 560.5,-156.3 560.5,-156.3 554.5,-156.3 548.5,-150.3 548.5,-144.3 548.5,-144.3 548.5,-107.65 548.5,-107.65 548.5,-101.65 554.5,-95.65 560.5,-95.65 560.5,-95.65 657.9,-95.65 657.9,-95.65 663.9,-95.65 669.9,-101.65 669.9,-107.65 669.9,-107.65 669.9,-144.3 669.9,-144.3 669.9,-150.3 663.9,-156.3 657.9,-156.3"/>
<path fill="none" stroke="black" d="M661.9,-160.3C661.9,-160.3 556.5,-160.3 556.5,-160.3 550.5,-160.3 544.5,-154.3 544.5,-148.3 544.5,-148.3 544.5,-103.65 544.5,-103.65 544.5,-97.65 550.5,-91.65 556.5,-91.65 556.5,-91.65 661.9,-91.65 661.9,-91.65 667.9,-91.65 673.9,-97.65 673.9,-103.65 673.9,-103.65 673.9,-148.3 673.9,-148.3 673.9,-154.3 667.9,-160.3 661.9,-160.3"/>
<text xml:space="preserve" text-anchor="middle" x="609.2" y="-135.6" font-family="Arial Bold" font-size="10.00">Hannah McDonald 🔗</text>
<text xml:space="preserve" text-anchor="middle" x="609.2" y="-121.35" font-family="Arial Bold" font-size="10.00">d. 1810, VA</text>
<text xml:space="preserve" text-anchor="middle" x="609.2" y="-109.35" font-family="Arial Bold" font-size="10.00">d. 1886, AR</text>
</a>
</g>
</g>
<!-- G1_FATHER&#45;&gt;G1_MOTHER -->
<g id="edge2" class="edge">
<title>G1_FATHER&#45;&gt;G1_MOTHER</title>
<path fill="none" stroke="black" stroke-width="1.5" stroke-dasharray="5,2" d="M480.33,-125.98C500.27,-125.98 523.15,-125.98 544.05,-125.98"/>
<text xml:space="preserve" text-anchor="middle" x="512.33" y="-130.73" font-family="Times,serif" font-size="10.00">m. 1834, VA</text>
</g>
<!-- G1_MOTHER&#45;&gt;G0_ME -->
<g id="edge13" class="edge">
<title>G1_MOTHER&#45;&gt;G0_ME</title>
<path fill="none" stroke="black" stroke-width="1.5" d="M574.68,-91.34C569.96,-86.74 565.08,-81.98 560.23,-77.26"/>
<polygon fill="black" stroke="black" stroke-width="1.5" points="562.84,-74.91 553.23,-70.44 557.95,-79.92 562.84,-74.91"/>
</g>
<!-- G2_PATERNAL_GF -->
<g id="node5" class="node">
<title>G2_PATERNAL_GF</title>
<g id="a_node5"><a xlink:href="https://ancestors.familysearch.org/en/LDF4-1L3/jacob-brunk-1784-1869" xlink:title="Jacob Brunk 🔗\nb. 1784, VA\nd. 1869, VA" target="_blank">
<path fill="lightsteelblue" stroke="black" d="M378.15,-235.95C378.15,-235.95 320.25,-235.95 320.25,-235.95 314.25,-235.95 308.25,-229.95 308.25,-223.95 308.25,-223.95 308.25,-195.3 308.25,-195.3 308.25,-189.3 314.25,-183.3 320.25,-183.3 320.25,-183.3 378.15,-183.3 378.15,-183.3 384.15,-183.3 390.15,-189.3 390.15,-195.3 390.15,-195.3 390.15,-223.95 390.15,-223.95 390.15,-229.95 384.15,-235.95 378.15,-235.95"/>
<text xml:space="preserve" text-anchor="middle" x="349.2" y="-219.25" font-family="Arial" font-size="10.00">Jacob Brunk 🔗</text>
<text xml:space="preserve" text-anchor="middle" x="349.2" y="-205" font-family="Arial" font-size="10.00">b. 1784, VA</text>
<text xml:space="preserve" text-anchor="middle" x="349.2" y="-193" font-family="Arial" font-size="10.00">d. 1869, VA</text>
</a>
</g>
</g>
<!-- G2_PATERNAL_GF&#45;&gt;G1_FATHER -->
<g id="edge14" class="edge">
<title>G2_PATERNAL_GF&#45;&gt;G1_FATHER</title>
<path fill="none" stroke="black" stroke-width="1.5" d="M373.45,-183.24C380.14,-176.24 387.5,-168.53 394.58,-161.12"/>
<polygon fill="black" stroke="black" stroke-width="1.5" points="396.75,-163.92 401.13,-154.27 391.69,-159.08 396.75,-163.92"/>
</g>
<!-- G2_PATERNAL_GM -->
<g id="node6" class="node">
<title>G2_PATERNAL_GM</title>
<g id="a_node6"><a xlink:href="https://ancestors.familysearch.org/en/L764-YV6/nancy-ann-shank-1787-1869" xlink:title="Nancy Ann Shank 🔗\nb. 1787, VA\nd. 1869, VA" target="_blank">
<path fill="lightsteelblue" stroke="black" d="M578.15,-235.95C578.15,-235.95 496.25,-235.95 496.25,-235.95 490.25,-235.95 484.25,-229.95 484.25,-223.95 484.25,-223.95 484.25,-195.3 484.25,-195.3 484.25,-189.3 490.25,-183.3 496.25,-183.3 496.25,-183.3 578.15,-183.3 578.15,-183.3 584.15,-183.3 590.15,-189.3 590.15,-195.3 590.15,-195.3 590.15,-223.95 590.15,-223.95 590.15,-229.95 584.15,-235.95 578.15,-235.95"/>
<text xml:space="preserve" text-anchor="middle" x="537.2" y="-219.25" font-family="Arial" font-size="10.00">Nancy Ann Shank 🔗</text>
<text xml:space="preserve" text-anchor="middle" x="537.2" y="-205" font-family="Arial" font-size="10.00">b. 1787, VA</text>
<text xml:space="preserve" text-anchor="middle" x="537.2" y="-193" font-family="Arial" font-size="10.00">d. 1869, VA</text>
</a>
</g>
</g>
<!-- G2_PATERNAL_GF&#45;&gt;G2_PATERNAL_GM -->
<g id="edge3" class="edge">
<title>G2_PATERNAL_GF&#45;&gt;G2_PATERNAL_GM</title>
<path fill="none" stroke="black" stroke-width="1.5" stroke-dasharray="5,2" d="M390.46,-209.62C417.91,-209.62 454.24,-209.62 483.88,-209.62"/>
<text xml:space="preserve" text-anchor="middle" x="437.2" y="-214.38" font-family="Times,serif" font-size="10.00">m. 1806, VA</text>
</g>
<!-- G2_PATERNAL_GM&#45;&gt;G1_FATHER -->
<g id="edge15" class="edge">
<title>G2_PATERNAL_GM&#45;&gt;G1_FATHER</title>
<path fill="none" stroke="black" stroke-width="1.5" d="M502.7,-183.01C492.86,-175.71 482,-167.66 471.66,-159.98"/>
<polygon fill="black" stroke="black" stroke-width="1.5" points="473.9,-157.28 463.78,-154.13 469.73,-162.9 473.9,-157.28"/>
</g>
<!-- G3_PATERNAL_GGF -->
<g id="node7" class="node">
<title>G3_PATERNAL_GGF</title>
<g id="a_node7"><a xlink:href="https://ancestors.familysearch.org/en/L2W8-8QJ/john-brunk-1760-1811" xlink:title="John Brunk 🔗\nb. 1760, PA\nd. 1781, MD" target="_blank">
<path fill="lightgreen" stroke="black" d="M210.53,-311.6C210.53,-311.6 157.88,-311.6 157.88,-311.6 151.88,-311.6 145.88,-305.6 145.88,-299.6 145.88,-299.6 145.88,-270.95 145.88,-270.95 145.88,-264.95 151.88,-258.95 157.88,-258.95 157.88,-258.95 210.53,-258.95 210.53,-258.95 216.53,-258.95 222.53,-264.95 222.53,-270.95 222.53,-270.95 222.53,-299.6 222.53,-299.6 222.53,-305.6 216.53,-311.6 210.53,-311.6"/>
<text xml:space="preserve" text-anchor="middle" x="184.2" y="-294.9" font-family="Arial" font-size="10.00">John Brunk 🔗</text>
<text xml:space="preserve" text-anchor="middle" x="184.2" y="-280.65" font-family="Arial" font-size="10.00">b. 1760, PA</text>
<text xml:space="preserve" text-anchor="middle" x="184.2" y="-268.65" font-family="Arial" font-size="10.00">d. 1781, MD</text>
</a>
</g>
</g>
<!-- G3_PATERNAL_GGF&#45;&gt;G2_PATERNAL_GF -->
<g id="edge16" class="edge">
<title>G3_PATERNAL_GGF&#45;&gt;G2_PATERNAL_GF</title>
<path fill="none" stroke="black" stroke-width="1.5" d="M222.89,-267.01C244.92,-257.17 272.84,-244.71 296.82,-234.01"/>
<polygon fill="black" stroke="black" stroke-width="1.5" points="298.09,-237.27 305.8,-230 295.24,-230.88 298.09,-237.27"/>
</g>
<!-- G3_PATERNAL_GGM -->
<g id="node8" class="node">
<title>G3_PATERNAL_GGM</title>
<g id="a_node8"><a xlink:href="https://ancestors.familysearch.org/en/L764-Y1P/mary-magdalene-brunk-1763-1817" xlink:title="Mary Magdalene [unknown] 🔗\nb. 1763\nd. 1717" target="_blank">
<path fill="lightgreen" stroke="black" d="M410.78,-311.6C410.78,-311.6 287.63,-311.6 287.63,-311.6 281.63,-311.6 275.63,-305.6 275.63,-299.6 275.63,-299.6 275.63,-270.95 275.63,-270.95 275.63,-264.95 281.63,-258.95 287.63,-258.95 287.63,-258.95 410.78,-258.95 410.78,-258.95 416.78,-258.95 422.78,-264.95 422.78,-270.95 422.78,-270.95 422.78,-299.6 422.78,-299.6 422.78,-305.6 416.78,-311.6 410.78,-311.6"/>
<text xml:space="preserve" text-anchor="middle" x="349.2" y="-294.9" font-family="Arial" font-size="10.00">Mary Magdalene [unknown] 🔗</text>
<text xml:space="preserve" text-anchor="middle" x="349.2" y="-280.65" font-family="Arial" font-size="10.00">b. 1763</text>
<text xml:space="preserve" text-anchor="middle" x="349.2" y="-268.65" font-family="Arial" font-size="10.00">d. 1717</text>
</a>
</g>
</g>
<!-- G3_PATERNAL_GGF&#45;&gt;G3_PATERNAL_GGM -->
<g id="edge4" class="edge">
<title>G3_PATERNAL_GGF&#45;&gt;G3_PATERNAL_GGM</title>
<path fill="none" stroke="black" stroke-width="1.5" stroke-dasharray="5,2" d="M222.87,-285.27C240.31,-285.27 257.74,-285.27 275.18,-285.27"/>
</g>
<!-- G3_PATERNAL_GGM&#45;&gt;G2_PATERNAL_GF -->
<g id="edge17" class="edge">
<title>G3_PATERNAL_GGM&#45;&gt;G2_PATERNAL_GF</title>
<path fill="none" stroke="black" stroke-width="1.5" d="M349.2,-258.52C349.2,-255.09 349.2,-251.53 349.2,-247.96"/>
<polygon fill="black" stroke="black" stroke-width="1.5" points="352.7,-248.27 349.2,-238.27 345.7,-248.27 352.7,-248.27"/>
</g>
<!-- G3_MATERNAL_GGF -->
<g id="node9" class="node">
<title>G3_MATERNAL_GGF</title>
<g id="a_node9"><a xlink:href="https://ancestors.familysearch.org/en/LHVN-DWX/christian-shank-1764-1834" xlink:title="Christian Shank 🔗\nb. 1764, VA\nd. 1834, VA" target="_blank">
<path fill="lightgreen" stroke="black" d="M573.65,-311.6C573.65,-311.6 500.75,-311.6 500.75,-311.6 494.75,-311.6 488.75,-305.6 488.75,-299.6 488.75,-299.6 488.75,-270.95 488.75,-270.95 488.75,-264.95 494.75,-258.95 500.75,-258.95 500.75,-258.95 573.65,-258.95 573.65,-258.95 579.65,-258.95 585.65,-264.95 585.65,-270.95 585.65,-270.95 585.65,-299.6 585.65,-299.6 585.65,-305.6 579.65,-311.6 573.65,-311.6"/>
<text xml:space="preserve" text-anchor="middle" x="537.2" y="-294.9" font-family="Arial" font-size="10.00">Christian Shank 🔗</text>
<text xml:space="preserve" text-anchor="middle" x="537.2" y="-280.65" font-family="Arial" font-size="10.00">b. 1764, VA</text>
<text xml:space="preserve" text-anchor="middle" x="537.2" y="-268.65" font-family="Arial" font-size="10.00">d. 1834, VA</text>
</a>
</g>
</g>
<!-- G3_MATERNAL_GGF&#45;&gt;G2_PATERNAL_GM -->
<g id="edge18" class="edge">
<title>G3_MATERNAL_GGF&#45;&gt;G2_PATERNAL_GM</title>
<path fill="none" stroke="black" stroke-width="1.5" d="M537.2,-258.52C537.2,-255.09 537.2,-251.53 537.2,-247.96"/>
<polygon fill="black" stroke="black" stroke-width="1.5" points="540.7,-248.27 537.2,-238.27 533.7,-248.27 540.7,-248.27"/>
</g>
<!-- G3_MATERNAL_GGM -->
<g id="node10" class="node">
<title>G3_MATERNAL_GGM</title>
<g id="a_node10"><a xlink:href="https://ancestors.familysearch.org/en/KL6P-79M/catherine-beckner-1762-1830" xlink:title="Catherine Beckner 🔗\nb. 1762, PA\nd. 1830, VA" target="_blank">
<path fill="lightgreen" stroke="black" d="M728.28,-311.6C728.28,-311.6 644.12,-311.6 644.12,-311.6 638.12,-311.6 632.12,-305.6 632.12,-299.6 632.12,-299.6 632.12,-270.95 632.12,-270.95 632.12,-264.95 638.12,-258.95 644.12,-258.95 644.12,-258.95 728.28,-258.95 728.28,-258.95 734.28,-258.95 740.28,-264.95 740.28,-270.95 740.28,-270.95 740.28,-299.6 740.28,-299.6 740.28,-305.6 734.28,-311.6 728.28,-311.6"/>
<text xml:space="preserve" text-anchor="middle" x="686.2" y="-294.9" font-family="Arial" font-size="10.00">Catherine Beckner 🔗</text>
<text xml:space="preserve" text-anchor="middle" x="686.2" y="-280.65" font-family="Arial" font-size="10.00">b. 1762, PA</text>
<text xml:space="preserve" text-anchor="middle" x="686.2" y="-268.65" font-family="Arial" font-size="10.00">d. 1830, VA</text>
</a>
</g>
</g>
<!-- G3_MATERNAL_GGF&#45;&gt;G3_MATERNAL_GGM -->
<g id="edge5" class="edge">
<title>G3_MATERNAL_GGF&#45;&gt;G3_MATERNAL_GGM</title>
<path fill="none" stroke="black" stroke-width="1.5" stroke-dasharray="5,2" d="M586.09,-285.27C601.34,-285.27 616.59,-285.27 631.84,-285.27"/>
</g>
<!-- G3_MATERNAL_GGM&#45;&gt;G2_PATERNAL_GM -->
<g id="edge19" class="edge">
<title>G3_MATERNAL_GGM&#45;&gt;G2_PATERNAL_GM</title>
<path fill="none" stroke="black" stroke-width="1.5" d="M634.09,-258.52C623.08,-253.08 611.36,-247.28 600.02,-241.67"/>
<polygon fill="black" stroke="black" stroke-width="1.5" points="601.83,-238.67 591.32,-237.38 598.73,-244.94 601.83,-238.67"/>
</g>
<!-- G4_BRUNK_GGGF -->
<g id="node11" class="node">
<title>G4_BRUNK_GGGF</title>
<g id="a_node11"><a xlink:href="https://ancestors.familysearch.org/en/LVPV-DQ4/jacob-brunk-i-1738-1787" xlink:title="Jacob Brunk I 🔗\nb. 1738, PA\nd. 1781, MD" target="_blank">
<path fill="wheat" stroke="black" d="M88.15,-387.25C88.15,-387.25 24.25,-387.25 24.25,-387.25 18.25,-387.25 12.25,-381.25 12.25,-375.25 12.25,-375.25 12.25,-346.6 12.25,-346.6 12.25,-340.6 18.25,-334.6 24.25,-334.6 24.25,-334.6 88.15,-334.6 88.15,-334.6 94.15,-334.6 100.15,-340.6 100.15,-346.6 100.15,-346.6 100.15,-375.25 100.15,-375.25 100.15,-381.25 94.15,-387.25 88.15,-387.25"/>
<text xml:space="preserve" text-anchor="middle" x="56.2" y="-370.55" font-family="Arial" font-size="10.00">Jacob Brunk I 🔗</text>
<text xml:space="preserve" text-anchor="middle" x="56.2" y="-356.3" font-family="Arial" font-size="10.00">b. 1738, PA</text>
<text xml:space="preserve" text-anchor="middle" x="56.2" y="-344.3" font-family="Arial" font-size="10.00">d. 1781, MD</text>
</a>
</g>
</g>
<!-- G4_BRUNK_GGGF&#45;&gt;G3_PATERNAL_GGF -->
<g id="edge20" class="edge">
<title>G4_BRUNK_GGGF&#45;&gt;G3_PATERNAL_GGF</title>
<path fill="none" stroke="black" stroke-width="1.5" d="M100.61,-334.37C111.66,-328.01 123.58,-321.16 134.85,-314.67"/>
<polygon fill="black" stroke="black" stroke-width="1.5" points="136.53,-317.74 143.45,-309.72 133.04,-311.68 136.53,-317.74"/>
</g>
<!-- G4_STOUFFER_GGGM -->
<g id="node12" class="node">
<title>G4_STOUFFER_GGGM</title>
<g id="a_node12"><a xlink:href="https://ancestors.familysearch.org/en/LV5X-7QL/anna-maria-stouffer-1740-1798" xlink:title="Anna Maria Stouffer 🔗\nb. 1740, PA\nd. 1798, VA" target="_blank">
<path fill="wheat" stroke="black" d="M228.9,-387.25C228.9,-387.25 139.5,-387.25 139.5,-387.25 133.5,-387.25 127.5,-381.25 127.5,-375.25 127.5,-375.25 127.5,-346.6 127.5,-346.6 127.5,-340.6 133.5,-334.6 139.5,-334.6 139.5,-334.6 228.9,-334.6 228.9,-334.6 234.9,-334.6 240.9,-340.6 240.9,-346.6 240.9,-346.6 240.9,-375.25 240.9,-375.25 240.9,-381.25 234.9,-387.25 228.9,-387.25"/>
<text xml:space="preserve" text-anchor="middle" x="184.2" y="-370.55" font-family="Arial" font-size="10.00">Anna Maria Stouffer 🔗</text>
<text xml:space="preserve" text-anchor="middle" x="184.2" y="-356.3" font-family="Arial" font-size="10.00">b. 1740, PA</text>
<text xml:space="preserve" text-anchor="middle" x="184.2" y="-344.3" font-family="Arial" font-size="10.00">d. 1798, VA</text>
</a>
</g>
</g>
<!-- G4_BRUNK_GGGF&#45;&gt;G4_STOUFFER_GGGM -->
<g id="edge6" class="edge">
<title>G4_BRUNK_GGGF&#45;&gt;G4_STOUFFER_GGGM</title>
<path fill="none" stroke="black" stroke-width="1.5" stroke-dasharray="5,2" d="M100.2,-360.92C109.17,-360.92 118.14,-360.92 127.11,-360.92"/>
</g>
<!-- G4_STOUFFER_GGGM&#45;&gt;G3_PATERNAL_GGF -->
<g id="edge21" class="edge">
<title>G4_STOUFFER_GGGM&#45;&gt;G3_PATERNAL_GGF</title>
<path fill="none" stroke="black" stroke-width="1.5" d="M184.2,-334.17C184.2,-330.74 184.2,-327.18 184.2,-323.61"/>
<polygon fill="black" stroke="black" stroke-width="1.5" points="187.7,-323.92 184.2,-313.92 180.7,-323.92 187.7,-323.92"/>
</g>
<!-- G4_SCHENK_GGGF -->
<g id="node13" class="node">
<title>G4_SCHENK_GGGF</title>
<path fill="wheat" stroke="black" d="M477.4,-386.12C477.4,-386.12 409,-386.12 409,-386.12 403,-386.12 397,-380.12 397,-374.12 397,-374.12 397,-347.72 397,-347.72 397,-341.72 403,-335.72 409,-335.72 409,-335.72 477.4,-335.72 477.4,-335.72 483.4,-335.72 489.4,-341.72 489.4,-347.72 489.4,-347.72 489.4,-374.12 489.4,-374.12 489.4,-380.12 483.4,-386.12 477.4,-386.12"/>
<text xml:space="preserve" text-anchor="middle" x="443.2" y="-369.42" font-family="Arial" font-size="10.00">Johanne Schenck</text>
<text xml:space="preserve" text-anchor="middle" x="443.2" y="-357.42" font-family="Arial" font-size="10.00">b. 1717, PA</text>
<text xml:space="preserve" text-anchor="middle" x="443.2" y="-345.42" font-family="Arial" font-size="10.00">d. 1791, PA</text>
</g>
<!-- G4_SCHENK_GGGF&#45;&gt;G3_MATERNAL_GGF -->
<g id="edge22" class="edge">
<title>G4_SCHENK_GGGF&#45;&gt;G3_MATERNAL_GGF</title>
<path fill="none" stroke="black" stroke-width="1.5" d="M474.5,-335.4C481.11,-330.22 488.19,-324.68 495.12,-319.25"/>
<polygon fill="black" stroke="black" stroke-width="1.5" points="496.93,-322.28 502.64,-313.35 492.61,-316.77 496.93,-322.28"/>
</g>
<!-- G4_MEYER_GGGM -->
<g id="node14" class="node">
<title>G4_MEYER_GGGM</title>
<g id="a_node14"><a xlink:href="https://ancestors.familysearch.org/en/LCR7-4B2/mary-meyer-1718-1834" xlink:title="Mary Meyer 🔗\nb. 1718, PA\nd. 1834, VA" target="_blank">
<path fill="wheat" stroke="black" d="M590.65,-387.25C590.65,-387.25 535.75,-387.25 535.75,-387.25 529.75,-387.25 523.75,-381.25 523.75,-375.25 523.75,-375.25 523.75,-346.6 523.75,-346.6 523.75,-340.6 529.75,-334.6 535.75,-334.6 535.75,-334.6 590.65,-334.6 590.65,-334.6 596.65,-334.6 602.65,-340.6 602.65,-346.6 602.65,-346.6 602.65,-375.25 602.65,-375.25 602.65,-381.25 596.65,-387.25 590.65,-387.25"/>
<text xml:space="preserve" text-anchor="middle" x="563.2" y="-370.55" font-family="Arial" font-size="10.00">Mary Meyer 🔗</text>
<text xml:space="preserve" text-anchor="middle" x="563.2" y="-356.3" font-family="Arial" font-size="10.00">b. 1718, PA</text>
<text xml:space="preserve" text-anchor="middle" x="563.2" y="-344.3" font-family="Arial" font-size="10.00">d. 1834, VA</text>
</a>
</g>
</g>
<!-- G4_SCHENK_GGGF&#45;&gt;G4_MEYER_GGGM -->
<g id="edge7" class="edge">
<title>G4_SCHENK_GGGF&#45;&gt;G4_MEYER_GGGM</title>
<path fill="none" stroke="black" stroke-width="1.5" stroke-dasharray="5,2" d="M489.61,-360.92C500.91,-360.92 512.22,-360.92 523.53,-360.92"/>
</g>
<!-- G4_MEYER_GGGM&#45;&gt;G3_MATERNAL_GGF -->
<g id="edge23" class="edge">
<title>G4_MEYER_GGGM&#45;&gt;G3_MATERNAL_GGF</title>
<path fill="none" stroke="black" stroke-width="1.5" d="M554.11,-334.17C552.82,-330.52 551.47,-326.71 550.13,-322.9"/>
<polygon fill="black" stroke="black" stroke-width="1.5" points="553.54,-322.05 546.91,-313.79 546.94,-324.38 553.54,-322.05"/>
</g>
<!-- G5_BECKNER_GGGF -->
<g id="node15" class="node">
<title>G5_BECKNER_GGGF</title>
<g id="a_node15"><a xlink:href="https://ancestors.familysearch.org/en/PSXM-S9L/johann-nicholas-beckner-1725-1812" xlink:title="Johann Nicholas Beckner 🔗\nb. 1725, Germany\nd. 1812, VA" target="_blank">
<path fill="wheat" stroke="black" d="M743.65,-387.25C743.65,-387.25 628.75,-387.25 628.75,-387.25 622.75,-387.25 616.75,-381.25 616.75,-375.25 616.75,-375.25 616.75,-346.6 616.75,-346.6 616.75,-340.6 622.75,-334.6 628.75,-334.6 628.75,-334.6 743.65,-334.6 743.65,-334.6 749.65,-334.6 755.65,-340.6 755.65,-346.6 755.65,-346.6 755.65,-375.25 755.65,-375.25 755.65,-381.25 749.65,-387.25 743.65,-387.25"/>
<text xml:space="preserve" text-anchor="middle" x="686.2" y="-370.55" font-family="Arial" font-size="10.00">Johann Nicholas Beckner 🔗</text>
<text xml:space="preserve" text-anchor="middle" x="686.2" y="-356.3" font-family="Arial" font-size="10.00">b. 1725, Germany</text>
<text xml:space="preserve" text-anchor="middle" x="686.2" y="-344.3" font-family="Arial" font-size="10.00">d. 1812, VA</text>
</a>
</g>
</g>
<!-- G5_BECKNER_GGGF&#45;&gt;G3_MATERNAL_GGM -->
<g id="edge24" class="edge">
<title>G5_BECKNER_GGGF&#45;&gt;G3_MATERNAL_GGM</title>
<path fill="none" stroke="black" stroke-width="1.5" d="M686.2,-334.17C686.2,-330.74 686.2,-327.18 686.2,-323.61"/>
<polygon fill="black" stroke="black" stroke-width="1.5" points="689.7,-323.92 686.2,-313.92 682.7,-323.92 689.7,-323.92"/>
</g>
<!-- G5_KILLIAN_GGGM -->
<g id="node16" class="node">
<title>G5_KILLIAN_GGGM</title>
<g id="a_node16"><a xlink:href="https://ancestors.familysearch.org/en/LX7X-ZS3/anna-maria-killian-1724-1812" xlink:title="Anna Maria Killian 🔗\nb. 1724, Germany\nd. 1812, VA" target="_blank">
<path fill="wheat" stroke="black" d="M877.15,-387.25C877.15,-387.25 795.25,-387.25 795.25,-387.25 789.25,-387.25 783.25,-381.25 783.25,-375.25 783.25,-375.25 783.25,-346.6 783.25,-346.6 783.25,-340.6 789.25,-334.6 795.25,-334.6 795.25,-334.6 877.15,-334.6 877.15,-334.6 883.15,-334.6 889.15,-340.6 889.15,-346.6 889.15,-346.6 889.15,-375.25 889.15,-375.25 889.15,-381.25 883.15,-387.25 877.15,-387.25"/>
<text xml:space="preserve" text-anchor="middle" x="836.2" y="-370.55" font-family="Arial" font-size="10.00">Anna Maria Killian 🔗</text>
<text xml:space="preserve" text-anchor="middle" x="836.2" y="-356.3" font-family="Arial" font-size="10.00">b. 1724, Germany</text>
<text xml:space="preserve" text-anchor="middle" x="836.2" y="-344.3" font-family="Arial" font-size="10.00">d. 1812, VA</text>
</a>
</g>
</g>
<!-- G5_BECKNER_GGGF&#45;&gt;G5_KILLIAN_GGGM -->
<g id="edge8" class="edge">
<title>G5_BECKNER_GGGF&#45;&gt;G5_KILLIAN_GGGM</title>
<path fill="none" stroke="black" stroke-width="1.5" stroke-dasharray="5,2" d="M755.93,-360.92C764.92,-360.92 773.9,-360.92 782.89,-360.92"/>
</g>
<!-- G5_KILLIAN_GGGM&#45;&gt;G3_MATERNAL_GGM -->
<g id="edge25" class="edge">
<title>G5_KILLIAN_GGGM&#45;&gt;G3_MATERNAL_GGM</title>
<path fill="none" stroke="black" stroke-width="1.5" d="M783.74,-334.17C772.66,-328.73 760.86,-322.93 749.44,-317.32"/>
<polygon fill="black" stroke="black" stroke-width="1.5" points="751.19,-314.29 740.67,-313.02 748.1,-320.57 751.19,-314.29"/>
</g>
<!-- G5_STOUFFER_GGGGF -->
<g id="node17" class="node">
<title>G5_STOUFFER_GGGGF</title>
<path fill="plum" stroke="black" d="M80.4,-461.77C80.4,-461.77 12,-461.77 12,-461.77 6,-461.77 0,-455.77 0,-449.77 0,-449.77 0,-423.37 0,-423.37 0,-417.37 6,-411.37 12,-411.37 12,-411.37 80.4,-411.37 80.4,-411.37 86.4,-411.37 92.4,-417.37 92.4,-423.37 92.4,-423.37 92.4,-449.77 92.4,-449.77 92.4,-455.77 86.4,-461.77 80.4,-461.77"/>
<text xml:space="preserve" text-anchor="middle" x="46.2" y="-445.07" font-family="Arial" font-size="10.00">Jacob Stauffer</text>
<text xml:space="preserve" text-anchor="middle" x="46.2" y="-433.07" font-family="Arial" font-size="10.00">b. 1713, Germany</text>
<text xml:space="preserve" text-anchor="middle" x="46.2" y="-421.07" font-family="Arial" font-size="10.00">1768, PA</text>
</g>
<!-- G5_STOUFFER_GGGGF&#45;&gt;G4_STOUFFER_GGGM -->
<g id="edge26" class="edge">
<title>G5_STOUFFER_GGGGF&#45;&gt;G4_STOUFFER_GGGM</title>
<path fill="none" stroke="black" stroke-width="1.5" d="M92.15,-411.05C102.85,-405.34 114.38,-399.19 125.54,-393.23"/>
<polygon fill="black" stroke="black" stroke-width="1.5" points="126.91,-396.47 134.08,-388.67 123.61,-390.29 126.91,-396.47"/>
</g>
<!-- G5_SCHETTNER_GGGGM -->
<g id="node18" class="node">
<title>G5_SCHETTNER_GGGGM</title>
<path fill="plum" stroke="black" d="M236.03,-461.77C236.03,-461.77 132.38,-461.77 132.38,-461.77 126.38,-461.77 120.38,-455.77 120.38,-449.77 120.38,-449.77 120.38,-423.37 120.38,-423.37 120.38,-417.37 126.38,-411.37 132.38,-411.37 132.38,-411.37 236.03,-411.37 236.03,-411.37 242.03,-411.37 248.03,-417.37 248.03,-423.37 248.03,-423.37 248.03,-449.77 248.03,-449.77 248.03,-455.77 242.03,-461.77 236.03,-461.77"/>
<text xml:space="preserve" text-anchor="middle" x="184.2" y="-445.07" font-family="Arial" font-size="10.00">Magdalena Hess Schetter</text>
<text xml:space="preserve" text-anchor="middle" x="184.2" y="-433.07" font-family="Arial" font-size="10.00">b. ~1715</text>
<text xml:space="preserve" text-anchor="middle" x="184.2" y="-421.07" font-family="Arial" font-size="10.00">d. ~1768</text>
</g>
<!-- G5_STOUFFER_GGGGF&#45;&gt;G5_SCHETTNER_GGGGM -->
<g id="edge9" class="edge">
<title>G5_STOUFFER_GGGGF&#45;&gt;G5_SCHETTNER_GGGGM</title>
<path fill="none" stroke="black" stroke-width="1.5" stroke-dasharray="5,2" d="M92.83,-436.57C101.87,-436.57 110.91,-436.57 119.95,-436.57"/>
</g>
<!-- G5_SCHETTNER_GGGGM&#45;&gt;G4_STOUFFER_GGGM -->
<g id="edge27" class="edge">
<title>G5_SCHETTNER_GGGGM&#45;&gt;G4_STOUFFER_GGGM</title>
<path fill="none" stroke="black" stroke-width="1.5" d="M184.2,-411.05C184.2,-407.4 184.2,-403.57 184.2,-399.73"/>
<polygon fill="black" stroke="black" stroke-width="1.5" points="187.7,-399.87 184.2,-389.87 180.7,-399.87 187.7,-399.87"/>
</g>
<!-- G5_SCHENK_GGGGF -->
<g id="node19" class="node">
<title>G5_SCHENK_GGGGF</title>
<g id="a_node19"><a xlink:href="https://ancestors.familysearch.org/en/LTBM-BS3/michael-schenck-1695-1759" xlink:title="Michael Schenk 🔗\nb. 1695, Germany\nd. 1759, PA" target="_blank">
<path fill="plum" stroke="black" d="M346.65,-462.9C346.65,-462.9 273.75,-462.9 273.75,-462.9 267.75,-462.9 261.75,-456.9 261.75,-450.9 261.75,-450.9 261.75,-422.25 261.75,-422.25 261.75,-416.25 267.75,-410.25 273.75,-410.25 273.75,-410.25 346.65,-410.25 346.65,-410.25 352.65,-410.25 358.65,-416.25 358.65,-422.25 358.65,-422.25 358.65,-450.9 358.65,-450.9 358.65,-456.9 352.65,-462.9 346.65,-462.9"/>
<text xml:space="preserve" text-anchor="middle" x="310.2" y="-446.2" font-family="Arial" font-size="10.00">Michael Schenk 🔗</text>
<text xml:space="preserve" text-anchor="middle" x="310.2" y="-431.95" font-family="Arial" font-size="10.00">b. 1695, Germany</text>
<text xml:space="preserve" text-anchor="middle" x="310.2" y="-419.95" font-family="Arial" font-size="10.00">d. 1759, PA</text>
</a>
</g>
</g>
<!-- G5_SCHENK_GGGGF&#45;&gt;G4_SCHENK_GGGF -->
<g id="edge28" class="edge">
<title>G5_SCHENK_GGGGF&#45;&gt;G4_SCHENK_GGGF</title>
<path fill="none" stroke="black" stroke-width="1.5" d="M356.72,-409.82C366.84,-404.21 377.63,-398.23 388.05,-392.46"/>
<polygon fill="black" stroke="black" stroke-width="1.5" points="389.68,-395.56 396.74,-387.65 386.29,-389.44 389.68,-395.56"/>
</g>
<!-- G5_SCHLOETZER_GGGGM -->
<g id="node20" class="node">
<title>G5_SCHLOETZER_GGGGM</title>
<path fill="plum" stroke="black" d="M487.9,-461.77C487.9,-461.77 398.5,-461.77 398.5,-461.77 392.5,-461.77 386.5,-455.77 386.5,-449.77 386.5,-449.77 386.5,-423.37 386.5,-423.37 386.5,-417.37 392.5,-411.37 398.5,-411.37 398.5,-411.37 487.9,-411.37 487.9,-411.37 493.9,-411.37 499.9,-417.37 499.9,-423.37 499.9,-423.37 499.9,-449.77 499.9,-449.77 499.9,-455.77 493.9,-461.77 487.9,-461.77"/>
<text xml:space="preserve" text-anchor="middle" x="443.2" y="-445.07" font-family="Arial" font-size="10.00">Anna Maria Schloetzer</text>
<text xml:space="preserve" text-anchor="middle" x="443.2" y="-433.07" font-family="Arial" font-size="10.00">b. 1703</text>
<text xml:space="preserve" text-anchor="middle" x="443.2" y="-421.07" font-family="Arial" font-size="10.00">d. 1759</text>
</g>
<!-- G5_SCHENK_GGGGF&#45;&gt;G5_SCHLOETZER_GGGGM -->
<g id="edge10" class="edge">
<title>G5_SCHENK_GGGGF&#45;&gt;G5_SCHLOETZER_GGGGM</title>
<path fill="none" stroke="black" stroke-width="1.5" stroke-dasharray="5,2" d="M359.04,-436.57C368.13,-436.57 377.23,-436.57 386.32,-436.57"/>
</g>
<!-- G5_SCHLOETZER_GGGGM&#45;&gt;G4_SCHENK_GGGF -->
<g id="edge29" class="edge">
<title>G5_SCHLOETZER_GGGGM&#45;&gt;G4_SCHENK_GGGF</title>
<path fill="none" stroke="black" stroke-width="1.5" d="M443.2,-411.05C443.2,-407.12 443.2,-402.97 443.2,-398.83"/>
<polygon fill="black" stroke="black" stroke-width="1.5" points="446.7,-398.86 443.2,-388.86 439.7,-398.86 446.7,-398.86"/>
</g>
<!-- G5_MEYER_GGGGF -->
<g id="node21" class="node">
<title>G5_MEYER_GGGGF</title>
<g id="a_node21"><a xlink:href="https://www.geni.com/people/Christian-Meyer-Sr/6000000002979732410?utm_source=chatgpt.com" xlink:title="Christian Meyer, Jr. 🔗\nb. 1676, Germany\nd. before 1751, PA" target="_blank">
<path fill="plum" stroke="black" d="M614.9,-462.9C614.9,-462.9 525.5,-462.9 525.5,-462.9 519.5,-462.9 513.5,-456.9 513.5,-450.9 513.5,-450.9 513.5,-422.25 513.5,-422.25 513.5,-416.25 519.5,-410.25 525.5,-410.25 525.5,-410.25 614.9,-410.25 614.9,-410.25 620.9,-410.25 626.9,-416.25 626.9,-422.25 626.9,-422.25 626.9,-450.9 626.9,-450.9 626.9,-456.9 620.9,-462.9 614.9,-462.9"/>
<text xml:space="preserve" text-anchor="middle" x="570.2" y="-446.2" font-family="Arial" font-size="10.00">Christian Meyer, Jr. 🔗</text>
<text xml:space="preserve" text-anchor="middle" x="570.2" y="-431.95" font-family="Arial" font-size="10.00">b. 1676, Germany</text>
<text xml:space="preserve" text-anchor="middle" x="570.2" y="-419.95" font-family="Arial" font-size="10.00">d. before 1751, PA</text>
</a>
</g>
</g>
<!-- G5_MEYER_GGGGF&#45;&gt;G4_MEYER_GGGM -->
<g id="edge30" class="edge">
<title>G5_MEYER_GGGGF&#45;&gt;G4_MEYER_GGGM</title>
<path fill="none" stroke="black" stroke-width="1.5" d="M567.75,-409.82C567.43,-406.39 567.09,-402.83 566.75,-399.26"/>
<polygon fill="black" stroke="black" stroke-width="1.5" points="570.26,-399.18 565.83,-389.56 563.29,-399.84 570.26,-399.18"/>
</g>
<!-- G5_BERGEY_GGGGM -->
<g id="node22" class="node">
<title>G5_BERGEY_GGGGM</title>
<g id="a_node22"><a xlink:href="https://www.geni.com/people/Anna-Meyer/6000000002980069278" xlink:title="Anna Barbara Bergey 🔗\nb. 1677, Germany\nd. 1748, PA" target="_blank">
<path fill="plum" stroke="black" d="M762.28,-462.9C762.28,-462.9 666.12,-462.9 666.12,-462.9 660.12,-462.9 654.12,-456.9 654.12,-450.9 654.12,-450.9 654.12,-422.25 654.12,-422.25 654.12,-416.25 660.12,-410.25 666.12,-410.25 666.12,-410.25 762.28,-410.25 762.28,-410.25 768.28,-410.25 774.28,-416.25 774.28,-422.25 774.28,-422.25 774.28,-450.9 774.28,-450.9 774.28,-456.9 768.28,-462.9 762.28,-462.9"/>
<text xml:space="preserve" text-anchor="middle" x="714.2" y="-446.2" font-family="Arial" font-size="10.00">Anna Barbara Bergey 🔗</text>
<text xml:space="preserve" text-anchor="middle" x="714.2" y="-431.95" font-family="Arial" font-size="10.00">b. 1677, Germany</text>
<text xml:space="preserve" text-anchor="middle" x="714.2" y="-419.95" font-family="Arial" font-size="10.00">d. 1748, PA</text>
</a>
</g>
</g>
<!-- G5_MEYER_GGGGF&#45;&gt;G5_BERGEY_GGGGM -->
<g id="edge11" class="edge">
<title>G5_MEYER_GGGGF&#45;&gt;G5_BERGEY_GGGGM</title>
<path fill="none" stroke="black" stroke-width="1.5" stroke-dasharray="5,2" d="M627.29,-436.57C636.12,-436.57 644.95,-436.57 653.77,-436.57"/>
</g>
<!-- G5_BERGEY_GGGGM&#45;&gt;G4_MEYER_GGGM -->
<g id="edge31" class="edge">
<title>G5_BERGEY_GGGGM&#45;&gt;G4_MEYER_GGGM</title>
<path fill="none" stroke="black" stroke-width="1.5" d="M657.23,-409.84C644.4,-403.88 630.73,-397.4 613.61,-388.89"/>
<polygon fill="black" stroke="black" stroke-width="1.5" points="615.65,-386 605.15,-384.66 612.52,-392.26 615.65,-386"/>
</g>
</g>
</svg>
