<?xml version="1.0" encoding="UTF-8" standalone="no"?>
<!DOCTYPE svg PUBLIC "-//W3C//DTD SVG 1.1//EN"
 "http://www.w3.org/Graphics/SVG/1.1/DTD/svg11.dtd">
<!-- Generated by graphviz version 14.0.4 (20251115.1723)
 -->
<!-- Title: family_tree Pages: 1 -->
<svg width="759pt" height="396pt"
 viewBox="7.00 7.00 752.00 389.00" xmlns="http://www.w3.org/2000/svg" xmlns:xlink="http://www.w3.org/1999/xlink">
<g id="graph0" class="graph" transform="scale(1 1) rotate(0) translate(14.4 381.65)">
<title>family_tree</title>
<polygon fill="white" stroke="none" points="-7.2,7.2 -7.2,-374.45 737.73,-374.45 737.73,7.2 -7.2,7.2"/>
<!-- G0_ME -->
<g id="node1" class="node tree&#45;connection">
<title>G0_ME</title>
<g id="a_node1"><a xlink:href="https://www.geni.com/people/Elizabeth-McPherson/375867648760011008" xlink:title="Elizabeth Nevitt 🔗\nb. 1695, MD\nd. ~1779, MD" target="_blank">
<path fill="gold" stroke="black" d="M494.9,-60.65C494.9,-60.65 418.25,-60.65 418.25,-60.65 412.25,-60.65 406.25,-54.65 406.25,-48.65 406.25,-48.65 406.25,-20 406.25,-20 406.25,-14 412.25,-8 418.25,-8 418.25,-8 494.9,-8 494.9,-8 500.9,-8 506.9,-14 506.9,-20 506.9,-20 506.9,-48.65 506.9,-48.65 506.9,-54.65 500.9,-60.65 494.9,-60.65"/>
<path fill="none" stroke="black" d="M498.9,-64.65C498.9,-64.65 414.25,-64.65 414.25,-64.65 408.25,-64.65 402.25,-58.65 402.25,-52.65 402.25,-52.65 402.25,-16 402.25,-16 402.25,-10 408.25,-4 414.25,-4 414.25,-4 498.9,-4 498.9,-4 504.9,-4 510.9,-10 510.9,-16 510.9,-16 510.9,-52.65 510.9,-52.65 510.9,-58.65 504.9,-64.65 498.9,-64.65"/>
<path fill="none" stroke="black" d="M502.9,-68.65C502.9,-68.65 410.25,-68.65 410.25,-68.65 404.25,-68.65 398.25,-62.65 398.25,-56.65 398.25,-56.65 398.25,-12 398.25,-12 398.25,-6 404.25,0 410.25,0 410.25,0 502.9,0 502.9,0 508.9,0 514.9,-6 514.9,-12 514.9,-12 514.9,-56.65 514.9,-56.65 514.9,-62.65 508.9,-68.65 502.9,-68.65"/>
<text xml:space="preserve" text-anchor="middle" x="456.57" y="-43.95" font-family="Arial Bold" font-size="10.00">Elizabeth Nevitt 🔗</text>
<text xml:space="preserve" text-anchor="middle" x="456.57" y="-29.7" font-family="Arial Bold" font-size="10.00">b. 1695, MD</text>
<text xml:space="preserve" text-anchor="middle" x="456.57" y="-17.7" font-family="Arial Bold" font-size="10.00">d. ~1779, MD</text>
</a>
</g>
</g>
<!-- G0_SPOUSE -->
<g id="node2" class="node">
<title>G0_SPOUSE</title>
<g id="a_node2"><a xlink:href="https://www.findagrave.com/memorial/37194034/george-beall" xlink:title="Daniel McPherson 🔗\nb. 1729, DC\nd. 1807, DC" target="_blank">
<path fill="gold" stroke="black" d="M624.28,-60.65C624.28,-60.65 540.88,-60.65 540.88,-60.65 534.88,-60.65 528.88,-54.65 528.88,-48.65 528.88,-48.65 528.88,-20 528.88,-20 528.88,-14 534.88,-8 540.88,-8 540.88,-8 624.28,-8 624.28,-8 630.28,-8 636.28,-14 636.28,-20 636.28,-20 636.28,-48.65 636.28,-48.65 636.28,-54.65 630.28,-60.65 624.28,-60.65"/>
<text xml:space="preserve" text-anchor="middle" x="582.58" y="-43.95" font-family="Arial" font-size="10.00">Daniel McPherson 🔗</text>
<text xml:space="preserve" text-anchor="middle" x="582.58" y="-29.7" font-family="Arial" font-size="10.00">b. 1729, DC</text>
<text xml:space="preserve" text-anchor="middle" x="582.58" y="-17.7" font-family="Arial" font-size="10.00">d. 1807, DC</text>
</a>
</g>
</g>
<!-- G0_ME&#45;&gt;G0_SPOUSE -->
<g id="edge1" class="edge">
<title>G0_ME&#45;&gt;G0_SPOUSE</title>
<path fill="none" stroke="black" stroke-width="1.5" stroke-dasharray="5,2" d="M515.15,-34.33C519.62,-34.33 524.1,-34.33 528.58,-34.33"/>
</g>
<!-- G1_FATHER -->
<g id="node3" class="node">
<title>G1_FATHER</title>
<g id="a_node3"><a xlink:href="https://www.geni.com/people/Richard-Nevitt-Sr/375879993940013206" xlink:title="Richard R. Nevitt 🔗\nb. ~1698, MD\nd. ~1724, MD" target="_blank">
<path fill="lightcoral" stroke="black" d="M425.4,-143.3C425.4,-143.3 345.75,-143.3 345.75,-143.3 339.75,-143.3 333.75,-137.3 333.75,-131.3 333.75,-131.3 333.75,-102.65 333.75,-102.65 333.75,-96.65 339.75,-90.65 345.75,-90.65 345.75,-90.65 425.4,-90.65 425.4,-90.65 431.4,-90.65 437.4,-96.65 437.4,-102.65 437.4,-102.65 437.4,-131.3 437.4,-131.3 437.4,-137.3 431.4,-143.3 425.4,-143.3"/>
<text xml:space="preserve" text-anchor="middle" x="385.57" y="-126.6" font-family="Arial" font-size="10.00">Richard R. Nevitt 🔗</text>
<text xml:space="preserve" text-anchor="middle" x="385.57" y="-112.35" font-family="Arial" font-size="10.00">b. ~1698, MD</text>
<text xml:space="preserve" text-anchor="middle" x="385.57" y="-100.35" font-family="Arial" font-size="10.00">d. ~1724, MD</text>
</a>
</g>
</g>
<!-- G1_FATHER&#45;&gt;G0_ME -->
<g id="edge9" class="edge">
<title>G1_FATHER&#45;&gt;G0_ME</title>
<path fill="none" stroke="black" stroke-width="1.5" d="M408.04,-90.46C411.52,-86.51 415.19,-82.34 418.89,-78.14"/>
<polygon fill="black" stroke="black" stroke-width="1.5" points="421.5,-80.47 425.48,-70.65 416.24,-75.84 421.5,-80.47"/>
</g>
<!-- G1_MOTHER -->
<g id="node4" class="node">
<title>G1_MOTHER</title>
<g id="a_node4"><a xlink:href="https://www.geni.com/people/Mary-McAtee/375880161770004680" xlink:title="Mary Magdeline Montgomery 🔗\nb. 1696, MD\nd. 1774, MD" target="_blank">
<path fill="lightcoral" stroke="black" d="M592.15,-143.3C592.15,-143.3 463,-143.3 463,-143.3 457,-143.3 451,-137.3 451,-131.3 451,-131.3 451,-102.65 451,-102.65 451,-96.65 457,-90.65 463,-90.65 463,-90.65 592.15,-90.65 592.15,-90.65 598.15,-90.65 604.15,-96.65 604.15,-102.65 604.15,-102.65 604.15,-131.3 604.15,-131.3 604.15,-137.3 598.15,-143.3 592.15,-143.3"/>
<text xml:space="preserve" text-anchor="middle" x="527.58" y="-126.6" font-family="Arial" font-size="10.00">Mary Magdeline Montgomery 🔗</text>
<text xml:space="preserve" text-anchor="middle" x="527.58" y="-112.35" font-family="Arial" font-size="10.00">b. 1696, MD</text>
<text xml:space="preserve" text-anchor="middle" x="527.58" y="-100.35" font-family="Arial" font-size="10.00">d. 1774, MD</text>
</a>
</g>
</g>
<!-- G1_FATHER&#45;&gt;G1_MOTHER -->
<g id="edge2" class="edge">
<title>G1_FATHER&#45;&gt;G1_MOTHER</title>
<path fill="none" stroke="black" stroke-width="1.5" stroke-dasharray="5,2" d="M437.72,-116.98C442.04,-116.98 446.37,-116.98 450.7,-116.98"/>
</g>
<!-- G1_MOTHER&#45;&gt;G0_ME -->
<g id="edge10" class="edge">
<title>G1_MOTHER&#45;&gt;G0_ME</title>
<path fill="none" stroke="black" stroke-width="1.5" d="M505.11,-90.46C501.63,-86.51 497.96,-82.34 494.26,-78.14"/>
<polygon fill="black" stroke="black" stroke-width="1.5" points="496.91,-75.84 487.67,-70.65 491.65,-80.47 496.91,-75.84"/>
</g>
<!-- G2_NEVITT -->
<g id="node5" class="node">
<title>G2_NEVITT</title>
<g id="a_node5"><a xlink:href="https://www.geni.com/people/John-Nevitt-Jr/377488697130013809" xlink:title="John Nevitt, Jr. 🔗\nb. ~1674, MD\nd. 1777,MD" target="_blank">
<path fill="lightsteelblue" stroke="black" d="M312.9,-217.95C312.9,-217.95 242.25,-217.95 242.25,-217.95 236.25,-217.95 230.25,-211.95 230.25,-205.95 230.25,-205.95 230.25,-177.3 230.25,-177.3 230.25,-171.3 236.25,-165.3 242.25,-165.3 242.25,-165.3 312.9,-165.3 312.9,-165.3 318.9,-165.3 324.9,-171.3 324.9,-177.3 324.9,-177.3 324.9,-205.95 324.9,-205.95 324.9,-211.95 318.9,-217.95 312.9,-217.95"/>
<text xml:space="preserve" text-anchor="middle" x="277.57" y="-201.25" font-family="Arial" font-size="10.00">John Nevitt, Jr. 🔗</text>
<text xml:space="preserve" text-anchor="middle" x="277.57" y="-187" font-family="Arial" font-size="10.00">b. ~1674, MD</text>
<text xml:space="preserve" text-anchor="middle" x="277.57" y="-175" font-family="Arial" font-size="10.00">d. 1777,MD</text>
</a>
</g>
</g>
<!-- G2_NEVITT&#45;&gt;G1_FATHER -->
<g id="edge11" class="edge">
<title>G2_NEVITT&#45;&gt;G1_FATHER</title>
<path fill="none" stroke="black" stroke-width="1.5" d="M315.96,-164.81C322.96,-160.1 330.34,-155.13 337.58,-150.26"/>
<polygon fill="black" stroke="black" stroke-width="1.5" points="339.09,-153.46 345.43,-144.98 335.18,-147.65 339.09,-153.46"/>
</g>
<!-- G2_JOY -->
<g id="node6" class="node">
<title>G2_JOY</title>
<g id="a_node6"><a xlink:href="https://www.geni.com/people/Sarah-Nevitt/377490341010012353" xlink:title="Sarah Joy 🔗\nb. 1685, MD\nd. 1737, MD" target="_blank">
<path fill="lightsteelblue" stroke="black" d="M418.27,-217.95C418.27,-217.95 370.88,-217.95 370.88,-217.95 364.88,-217.95 358.88,-211.95 358.88,-205.95 358.88,-205.95 358.88,-177.3 358.88,-177.3 358.88,-171.3 364.88,-165.3 370.88,-165.3 370.88,-165.3 418.27,-165.3 418.27,-165.3 424.27,-165.3 430.27,-171.3 430.27,-177.3 430.27,-177.3 430.27,-205.95 430.27,-205.95 430.27,-211.95 424.27,-217.95 418.27,-217.95"/>
<text xml:space="preserve" text-anchor="middle" x="394.57" y="-201.25" font-family="Arial" font-size="10.00">Sarah Joy 🔗</text>
<text xml:space="preserve" text-anchor="middle" x="394.57" y="-187" font-family="Arial" font-size="10.00">b. 1685, MD</text>
<text xml:space="preserve" text-anchor="middle" x="394.57" y="-175" font-family="Arial" font-size="10.00">d. 1737, MD</text>
</a>
</g>
</g>
<!-- G2_NEVITT&#45;&gt;G2_JOY -->
<g id="edge3" class="edge">
<title>G2_NEVITT&#45;&gt;G2_JOY</title>
<path fill="none" stroke="black" stroke-width="1.5" stroke-dasharray="5,2" d="M325.11,-191.62C336.23,-191.62 347.36,-191.62 358.48,-191.62"/>
</g>
<!-- G2_JOY&#45;&gt;G1_FATHER -->
<g id="edge12" class="edge">
<title>G2_JOY&#45;&gt;G1_FATHER</title>
<path fill="none" stroke="black" stroke-width="1.5" d="M391.38,-164.81C391.01,-161.81 390.62,-158.71 390.24,-155.59"/>
<polygon fill="black" stroke="black" stroke-width="1.5" points="393.75,-155.46 389.04,-145.96 386.8,-156.32 393.75,-155.46"/>
</g>
<!-- G2_MONTGOMERIE -->
<g id="node7" class="node">
<title>G2_MONTGOMERIE</title>
<g id="a_node7"><a xlink:href="https://www.geni.com/people/Peter-Montgomery-The-Immigrant/6000000000806475992" xlink:title="Pierre Montgomerie 🔗\nb. ~1684, France\nd. 1754, MD" target="_blank">
<path fill="lightsteelblue" stroke="black" d="M562.53,-217.95C562.53,-217.95 474.63,-217.95 474.63,-217.95 468.63,-217.95 462.63,-211.95 462.63,-205.95 462.63,-205.95 462.63,-177.3 462.63,-177.3 462.63,-171.3 468.63,-165.3 474.63,-165.3 474.63,-165.3 562.53,-165.3 562.53,-165.3 568.53,-165.3 574.53,-171.3 574.53,-177.3 574.53,-177.3 574.53,-205.95 574.53,-205.95 574.53,-211.95 568.53,-217.95 562.53,-217.95"/>
<text xml:space="preserve" text-anchor="middle" x="518.58" y="-201.25" font-family="Arial" font-size="10.00">Pierre Montgomerie 🔗</text>
<text xml:space="preserve" text-anchor="middle" x="518.58" y="-187" font-family="Arial" font-size="10.00">b. ~1684, France</text>
<text xml:space="preserve" text-anchor="middle" x="518.58" y="-175" font-family="Arial" font-size="10.00">d. 1754, MD</text>
</a>
</g>
</g>
<!-- G2_MONTGOMERIE&#45;&gt;G1_MOTHER -->
<g id="edge13" class="edge">
<title>G2_MONTGOMERIE&#45;&gt;G1_MOTHER</title>
<path fill="none" stroke="black" stroke-width="1.5" d="M521.77,-164.81C522.14,-161.81 522.53,-158.71 522.91,-155.59"/>
<polygon fill="black" stroke="black" stroke-width="1.5" points="526.35,-156.32 524.11,-145.96 519.4,-155.46 526.35,-156.32"/>
</g>
<!-- G2_HAGAN -->
<g id="node8" class="node">
<title>G2_HAGAN</title>
<g id="a_node8"><a xlink:href="http://www.montyhistnotes.com/genealogy/getperson.php?personID=I230&amp;tree=MontyHistNotes_II" xlink:title="Catherine Margaret Hagan 🔗\nb. ~1688, France\nd. 1726, MD" target="_blank">
<path fill="lightsteelblue" stroke="black" d="M718.53,-217.95C718.53,-217.95 600.62,-217.95 600.62,-217.95 594.62,-217.95 588.62,-211.95 588.62,-205.95 588.62,-205.95 588.62,-177.3 588.62,-177.3 588.62,-171.3 594.62,-165.3 600.62,-165.3 600.62,-165.3 718.53,-165.3 718.53,-165.3 724.53,-165.3 730.53,-171.3 730.53,-177.3 730.53,-177.3 730.53,-205.95 730.53,-205.95 730.53,-211.95 724.53,-217.95 718.53,-217.95"/>
<text xml:space="preserve" text-anchor="middle" x="659.58" y="-201.25" font-family="Arial" font-size="10.00">Catherine Margaret Hagan 🔗</text>
<text xml:space="preserve" text-anchor="middle" x="659.58" y="-187" font-family="Arial" font-size="10.00">b. ~1688, France</text>
<text xml:space="preserve" text-anchor="middle" x="659.58" y="-175" font-family="Arial" font-size="10.00">d. 1726, MD</text>
</a>
</g>
</g>
<!-- G2_MONTGOMERIE&#45;&gt;G2_HAGAN -->
<g id="edge4" class="edge">
<title>G2_MONTGOMERIE&#45;&gt;G2_HAGAN</title>
<path fill="none" stroke="black" stroke-width="1.5" stroke-dasharray="5,2" d="M574.75,-191.62C579.28,-191.62 583.81,-191.62 588.34,-191.62"/>
</g>
<!-- G2_HAGAN&#45;&gt;G1_MOTHER -->
<g id="edge14" class="edge">
<title>G2_HAGAN&#45;&gt;G1_MOTHER</title>
<path fill="none" stroke="black" stroke-width="1.5" d="M612.67,-164.81C603.72,-159.88 594.26,-154.68 585.02,-149.59"/>
<polygon fill="black" stroke="black" stroke-width="1.5" points="586.77,-146.56 576.32,-144.8 583.4,-152.69 586.77,-146.56"/>
</g>
<!-- G3_NEVITT -->
<g id="node9" class="node">
<title>G3_NEVITT</title>
<g id="a_node9"><a xlink:href="https://www.geni.com/people/John-Nevitt-Sr/377490620270013809" xlink:title="John Nevitt, Sr. 🔗\nb. 1641, MD\nd. 1713, MD" target="_blank">
<path fill="lightcyan" stroke="black" d="M183.65,-292.6C183.65,-292.6 111.5,-292.6 111.5,-292.6 105.5,-292.6 99.5,-286.6 99.5,-280.6 99.5,-280.6 99.5,-251.95 99.5,-251.95 99.5,-245.95 105.5,-239.95 111.5,-239.95 111.5,-239.95 183.65,-239.95 183.65,-239.95 189.65,-239.95 195.65,-245.95 195.65,-251.95 195.65,-251.95 195.65,-280.6 195.65,-280.6 195.65,-286.6 189.65,-292.6 183.65,-292.6"/>
<text xml:space="preserve" text-anchor="middle" x="147.57" y="-275.9" font-family="Arial" font-size="10.00">John Nevitt, Sr. 🔗</text>
<text xml:space="preserve" text-anchor="middle" x="147.57" y="-261.65" font-family="Arial" font-size="10.00">b. 1641, MD</text>
<text xml:space="preserve" text-anchor="middle" x="147.57" y="-249.65" font-family="Arial" font-size="10.00">d. 1713, MD</text>
</a>
</g>
</g>
<!-- G3_NEVITT&#45;&gt;G2_NEVITT -->
<g id="edge15" class="edge">
<title>G3_NEVITT&#45;&gt;G2_NEVITT</title>
<path fill="none" stroke="black" stroke-width="1.5" d="M193.77,-239.46C202.59,-234.53 211.9,-229.33 221,-224.24"/>
<polygon fill="black" stroke="black" stroke-width="1.5" points="222.52,-227.4 229.54,-219.47 219.11,-221.29 222.52,-227.4"/>
</g>
<!-- G3_MARTIN -->
<g id="node10" class="node">
<title>G3_MARTIN</title>
<g id="a_node10"><a xlink:href="https://www.geni.com/people/Elizabeth-Nevitt/377490855380012301" xlink:title="Elizabeth Millicent Martin 🔗\nb. ~1655 England\nd. ~1693, MD" target="_blank">
<path fill="lightcyan" stroke="black" d="M333.9,-292.6C333.9,-292.6 221.25,-292.6 221.25,-292.6 215.25,-292.6 209.25,-286.6 209.25,-280.6 209.25,-280.6 209.25,-251.95 209.25,-251.95 209.25,-245.95 215.25,-239.95 221.25,-239.95 221.25,-239.95 333.9,-239.95 333.9,-239.95 339.9,-239.95 345.9,-245.95 345.9,-251.95 345.9,-251.95 345.9,-280.6 345.9,-280.6 345.9,-286.6 339.9,-292.6 333.9,-292.6"/>
<text xml:space="preserve" text-anchor="middle" x="277.57" y="-275.9" font-family="Arial" font-size="10.00">Elizabeth Millicent Martin 🔗</text>
<text xml:space="preserve" text-anchor="middle" x="277.57" y="-261.65" font-family="Arial" font-size="10.00">b. ~1655 England</text>
<text xml:space="preserve" text-anchor="middle" x="277.57" y="-249.65" font-family="Arial" font-size="10.00">d. ~1693, MD</text>
</a>
</g>
</g>
<!-- G3_NEVITT&#45;&gt;G3_MARTIN -->
<g id="edge5" class="edge">
<title>G3_NEVITT&#45;&gt;G3_MARTIN</title>
<path fill="none" stroke="black" stroke-width="1.5" stroke-dasharray="5,2" d="M196.07,-266.27C200.32,-266.27 204.56,-266.27 208.81,-266.27"/>
</g>
<!-- G3_MARTIN&#45;&gt;G2_NEVITT -->
<g id="edge16" class="edge">
<title>G3_MARTIN&#45;&gt;G2_NEVITT</title>
<path fill="none" stroke="black" stroke-width="1.5" d="M277.57,-239.46C277.57,-236.57 277.57,-233.58 277.57,-230.58"/>
<polygon fill="black" stroke="black" stroke-width="1.5" points="281.08,-230.63 277.58,-220.63 274.08,-230.63 281.08,-230.63"/>
</g>
<!-- G3_JOY -->
<g id="node11" class="node">
<title>G3_JOY</title>
<g id="a_node11"><a xlink:href="https://www.geni.com/people/Peter-Joy/6000000000245770534" xlink:title="Peter Joy 🔗\nb. 1665, MD\nd. 1740, MD" target="_blank">
<path fill="lightcyan" stroke="black" d="M417.15,-292.6C417.15,-292.6 372,-292.6 372,-292.6 366,-292.6 360,-286.6 360,-280.6 360,-280.6 360,-251.95 360,-251.95 360,-245.95 366,-239.95 372,-239.95 372,-239.95 417.15,-239.95 417.15,-239.95 423.15,-239.95 429.15,-245.95 429.15,-251.95 429.15,-251.95 429.15,-280.6 429.15,-280.6 429.15,-286.6 423.15,-292.6 417.15,-292.6"/>
<text xml:space="preserve" text-anchor="middle" x="394.57" y="-275.9" font-family="Arial" font-size="10.00">Peter Joy 🔗</text>
<text xml:space="preserve" text-anchor="middle" x="394.57" y="-261.65" font-family="Arial" font-size="10.00">b. 1665, MD</text>
<text xml:space="preserve" text-anchor="middle" x="394.57" y="-249.65" font-family="Arial" font-size="10.00">d. 1740, MD</text>
</a>
</g>
</g>
<!-- G3_JOY&#45;&gt;G2_JOY -->
<g id="edge17" class="edge">
<title>G3_JOY&#45;&gt;G2_JOY</title>
<path fill="none" stroke="black" stroke-width="1.5" d="M394.57,-239.46C394.57,-236.57 394.57,-233.58 394.57,-230.58"/>
<polygon fill="black" stroke="black" stroke-width="1.5" points="398.08,-230.63 394.58,-220.63 391.08,-230.63 398.08,-230.63"/>
</g>
<!-- G3_MILES -->
<g id="node12" class="node">
<title>G3_MILES</title>
<g id="a_node12"><a xlink:href="https://www.geni.com/people/Sarah-Joy/6000000002848730103" xlink:title="Sarah Miles 🔗\nb. 1668, England\nd. ~1701, MD?" target="_blank">
<path fill="lightcyan" stroke="black" d="M519.52,-292.6C519.52,-292.6 455.62,-292.6 455.62,-292.6 449.62,-292.6 443.62,-286.6 443.62,-280.6 443.62,-280.6 443.62,-251.95 443.62,-251.95 443.62,-245.95 449.62,-239.95 455.62,-239.95 455.62,-239.95 519.52,-239.95 519.52,-239.95 525.52,-239.95 531.52,-245.95 531.52,-251.95 531.52,-251.95 531.52,-280.6 531.52,-280.6 531.52,-286.6 525.52,-292.6 519.52,-292.6"/>
<text xml:space="preserve" text-anchor="middle" x="487.57" y="-275.9" font-family="Arial" font-size="10.00">Sarah Miles 🔗</text>
<text xml:space="preserve" text-anchor="middle" x="487.57" y="-261.65" font-family="Arial" font-size="10.00">b. 1668, England</text>
<text xml:space="preserve" text-anchor="middle" x="487.57" y="-249.65" font-family="Arial" font-size="10.00">d. ~1701, MD?</text>
</a>
</g>
</g>
<!-- G3_JOY&#45;&gt;G3_MILES -->
<g id="edge6" class="edge">
<title>G3_JOY&#45;&gt;G3_MILES</title>
<path fill="none" stroke="black" stroke-width="1.5" stroke-dasharray="5,2" d="M429.45,-266.27C434.14,-266.27 438.83,-266.27 443.53,-266.27"/>
</g>
<!-- G3_MILES&#45;&gt;G2_JOY -->
<g id="edge18" class="edge">
<title>G3_MILES&#45;&gt;G2_JOY</title>
<path fill="none" stroke="black" stroke-width="1.5" d="M454.52,-239.46C448.91,-235.07 443,-230.45 437.18,-225.9"/>
<polygon fill="black" stroke="black" stroke-width="1.5" points="439.34,-223.16 429.31,-219.76 435.03,-228.67 439.34,-223.16"/>
</g>
<!-- G4_NEVITT -->
<g id="node13" class="node">
<title>G4_NEVITT</title>
<g id="a_node13"><a xlink:href="https://www.geni.com/people/Richard-Nevitt-I/377496654030013776" xlink:title="Richard Nevitt, I 🔗\nb. ~1619, England\nd. 1673, MD" target="_blank">
<path fill="mistyrose" stroke="black" d="M87.15,-367.25C87.15,-367.25 12,-367.25 12,-367.25 6,-367.25 0,-361.25 0,-355.25 0,-355.25 0,-326.6 0,-326.6 0,-320.6 6,-314.6 12,-314.6 12,-314.6 87.15,-314.6 87.15,-314.6 93.15,-314.6 99.15,-320.6 99.15,-326.6 99.15,-326.6 99.15,-355.25 99.15,-355.25 99.15,-361.25 93.15,-367.25 87.15,-367.25"/>
<text xml:space="preserve" text-anchor="middle" x="49.57" y="-350.55" font-family="Arial" font-size="10.00">Richard Nevitt, I 🔗</text>
<text xml:space="preserve" text-anchor="middle" x="49.57" y="-336.3" font-family="Arial" font-size="10.00">b. ~1619, England</text>
<text xml:space="preserve" text-anchor="middle" x="49.57" y="-324.3" font-family="Arial" font-size="10.00">d. 1673, MD</text>
</a>
</g>
</g>
<!-- G4_NEVITT&#45;&gt;G3_NEVITT -->
<g id="edge19" class="edge">
<title>G4_NEVITT&#45;&gt;G3_NEVITT</title>
<path fill="none" stroke="black" stroke-width="1.5" d="M84.4,-314.11C90.47,-309.61 96.85,-304.88 103.13,-300.22"/>
<polygon fill="black" stroke="black" stroke-width="1.5" points="105.09,-303.13 111.04,-294.36 100.92,-297.51 105.09,-303.13"/>
</g>
<!-- G4_NORRISE -->
<g id="node14" class="node">
<title>G4_NORRISE</title>
<g id="a_node14"><a xlink:href="https://www.geni.com/people/Anne-Norrise/377496945440013847" xlink:title="Anne Norrise 🔗\nb. 1625, Equatorial Guinea\nd. ~1673, MD" target="_blank">
<path fill="mistyrose" stroke="black" d="M231.52,-367.25C231.52,-367.25 125.62,-367.25 125.62,-367.25 119.62,-367.25 113.62,-361.25 113.62,-355.25 113.62,-355.25 113.62,-326.6 113.62,-326.6 113.62,-320.6 119.62,-314.6 125.62,-314.6 125.62,-314.6 231.52,-314.6 231.52,-314.6 237.52,-314.6 243.52,-320.6 243.52,-326.6 243.52,-326.6 243.52,-355.25 243.52,-355.25 243.52,-361.25 237.52,-367.25 231.52,-367.25"/>
<text xml:space="preserve" text-anchor="middle" x="178.57" y="-350.55" font-family="Arial" font-size="10.00">Anne Norrise 🔗</text>
<text xml:space="preserve" text-anchor="middle" x="178.57" y="-336.3" font-family="Arial" font-size="10.00">b. 1625, Equatorial Guinea</text>
<text xml:space="preserve" text-anchor="middle" x="178.57" y="-324.3" font-family="Arial" font-size="10.00">d. ~1673, MD</text>
</a>
</g>
</g>
<!-- G4_NEVITT&#45;&gt;G4_NORRISE -->
<g id="edge7" class="edge">
<title>G4_NEVITT&#45;&gt;G4_NORRISE</title>
<path fill="none" stroke="black" stroke-width="1.5" stroke-dasharray="5,2" d="M99.46,-340.92C104.1,-340.92 108.73,-340.92 113.37,-340.92"/>
</g>
<!-- G4_NORRISE&#45;&gt;G3_NEVITT -->
<g id="edge20" class="edge">
<title>G4_NORRISE&#45;&gt;G3_NEVITT</title>
<path fill="none" stroke="black" stroke-width="1.5" d="M167.56,-314.11C166.19,-310.89 164.77,-307.56 163.34,-304.22"/>
<polygon fill="black" stroke="black" stroke-width="1.5" points="166.59,-302.92 159.45,-295.1 160.15,-305.67 166.59,-302.92"/>
</g>
<!-- G4_JOY -->
<g id="node15" class="node">
<title>G4_JOY</title>
<g id="a_node15"><a xlink:href="https://www.geni.com/people/Peter-The-Immigrant-Joy-Sr/6000000006976477465" xlink:title="Peter Joy, Sr. 🔗\nb. 1628, England\nd. 1686, MD" target="_blank">
<path fill="mistyrose" stroke="black" d="M395.52,-367.25C395.52,-367.25 331.62,-367.25 331.62,-367.25 325.62,-367.25 319.62,-361.25 319.62,-355.25 319.62,-355.25 319.62,-326.6 319.62,-326.6 319.62,-320.6 325.62,-314.6 331.62,-314.6 331.62,-314.6 395.52,-314.6 395.52,-314.6 401.52,-314.6 407.52,-320.6 407.52,-326.6 407.52,-326.6 407.52,-355.25 407.52,-355.25 407.52,-361.25 401.52,-367.25 395.52,-367.25"/>
<text xml:space="preserve" text-anchor="middle" x="363.57" y="-350.55" font-family="Arial" font-size="10.00">Peter Joy, Sr. 🔗</text>
<text xml:space="preserve" text-anchor="middle" x="363.57" y="-336.3" font-family="Arial" font-size="10.00">b. 1628, England</text>
<text xml:space="preserve" text-anchor="middle" x="363.57" y="-324.3" font-family="Arial" font-size="10.00">d. 1686, MD</text>
</a>
</g>
</g>
<!-- G4_JOY&#45;&gt;G3_JOY -->
<g id="edge21" class="edge">
<title>G4_JOY&#45;&gt;G3_JOY</title>
<path fill="none" stroke="black" stroke-width="1.5" d="M374.59,-314.11C375.96,-310.89 377.38,-307.56 378.81,-304.22"/>
<polygon fill="black" stroke="black" stroke-width="1.5" points="382,-305.67 382.7,-295.1 375.56,-302.92 382,-305.67"/>
</g>
<!-- G4_GOLDSON -->
<g id="node16" class="node">
<title>G4_GOLDSON</title>
<g id="a_node16"><a xlink:href="https://www.geni.com/people/Martha-Joy/6000000006976413519" xlink:title="Martha Goldson 🔗\nb. 1640, England\nd. ~1686, MD" target="_blank">
<path fill="mistyrose" stroke="black" d="M505.65,-367.25C505.65,-367.25 433.5,-367.25 433.5,-367.25 427.5,-367.25 421.5,-361.25 421.5,-355.25 421.5,-355.25 421.5,-326.6 421.5,-326.6 421.5,-320.6 427.5,-314.6 433.5,-314.6 433.5,-314.6 505.65,-314.6 505.65,-314.6 511.65,-314.6 517.65,-320.6 517.65,-326.6 517.65,-326.6 517.65,-355.25 517.65,-355.25 517.65,-361.25 511.65,-367.25 505.65,-367.25"/>
<text xml:space="preserve" text-anchor="middle" x="469.57" y="-350.55" font-family="Arial" font-size="10.00">Martha Goldson 🔗</text>
<text xml:space="preserve" text-anchor="middle" x="469.57" y="-336.3" font-family="Arial" font-size="10.00">b. 1640, England</text>
<text xml:space="preserve" text-anchor="middle" x="469.57" y="-324.3" font-family="Arial" font-size="10.00">d. ~1686, MD</text>
</a>
</g>
</g>
<!-- G4_JOY&#45;&gt;G4_GOLDSON -->
<g id="edge8" class="edge">
<title>G4_JOY&#45;&gt;G4_GOLDSON</title>
<path fill="none" stroke="black" stroke-width="1.5" stroke-dasharray="5,2" d="M407.88,-340.92C412.38,-340.92 416.88,-340.92 421.38,-340.92"/>
</g>
<!-- G4_GOLDSON&#45;&gt;G3_JOY -->
<g id="edge22" class="edge">
<title>G4_GOLDSON&#45;&gt;G3_JOY</title>
<path fill="none" stroke="black" stroke-width="1.5" d="M442.92,-314.11C438.61,-309.93 434.09,-305.55 429.62,-301.22"/>
<polygon fill="black" stroke="black" stroke-width="1.5" points="432.39,-299.03 422.77,-294.59 427.52,-304.06 432.39,-299.03"/>
</g>
</g>
</svg>
