<?xml version="1.0" encoding="UTF-8" standalone="no"?>
<!DOCTYPE svg PUBLIC "-//W3C//DTD SVG 1.1//EN"
 "http://www.w3.org/Graphics/SVG/1.1/DTD/svg11.dtd">
<!-- Generated by graphviz version 14.0.4 (20251115.1723)
 -->
<!-- Title: family_tree Pages: 1 -->
<svg width="988pt" height="471pt"
 viewBox="7.00 7.00 981.00 464.00" xmlns="http://www.w3.org/2000/svg" xmlns:xlink="http://www.w3.org/1999/xlink">
<g id="graph0" class="graph" transform="scale(1 1) rotate(0) translate(14.4 456.8)">
<title>family_tree</title>
<polygon fill="white" stroke="none" points="-7.2,7.2 -7.2,-449.6 966.35,-449.6 966.35,7.2 -7.2,7.2"/>
<!-- G0_ME -->
<g id="node1" class="node">
<title>G0_ME</title>
<path fill="gold" stroke="black" d="M557.9,-50.4C557.9,-50.4 465.5,-50.4 465.5,-50.4 459.5,-50.4 453.5,-44.4 453.5,-38.4 453.5,-38.4 453.5,-12 453.5,-12 453.5,-6 459.5,0 465.5,0 465.5,0 557.9,0 557.9,0 563.9,0 569.9,-6 569.9,-12 569.9,-12 569.9,-38.4 569.9,-38.4 569.9,-44.4 563.9,-50.4 557.9,-50.4"/>
<text xml:space="preserve" text-anchor="middle" x="511.7" y="-33.7" font-family="Arial" font-size="10.00">Sidney William Stinnett</text>
<text xml:space="preserve" text-anchor="middle" x="511.7" y="-21.7" font-family="Arial" font-size="10.00">b. 1911, AR</text>
<text xml:space="preserve" text-anchor="middle" x="511.7" y="-9.7" font-family="Arial" font-size="10.00">d. 1971, Germany</text>
</g>
<!-- G0_SPOUSE -->
<g id="node2" class="node">
<title>G0_SPOUSE</title>
<path fill="gold" stroke="black" d="M721.28,-50.4C721.28,-50.4 646.12,-50.4 646.12,-50.4 640.12,-50.4 634.12,-44.4 634.12,-38.4 634.12,-38.4 634.12,-12 634.12,-12 634.12,-6 640.12,0 646.12,0 646.12,0 721.28,0 721.28,0 727.28,0 733.28,-6 733.28,-12 733.28,-12 733.28,-38.4 733.28,-38.4 733.28,-44.4 727.28,-50.4 721.28,-50.4"/>
<text xml:space="preserve" text-anchor="middle" x="683.7" y="-33.7" font-family="Arial" font-size="10.00">Marjorie Inez Smith</text>
<text xml:space="preserve" text-anchor="middle" x="683.7" y="-21.7" font-family="Arial" font-size="10.00">b. 1920, AR</text>
<text xml:space="preserve" text-anchor="middle" x="683.7" y="-9.7" font-family="Arial" font-size="10.00">d. 1996, TX</text>
</g>
<!-- G0_ME&#45;&gt;G0_SPOUSE -->
<g id="edge1" class="edge">
<title>G0_ME&#45;&gt;G0_SPOUSE</title>
<path fill="none" stroke="black" stroke-width="1.5" stroke-dasharray="5,2" d="M569.93,-25.2C590.69,-25.2 613.87,-25.2 633.86,-25.2"/>
<text xml:space="preserve" text-anchor="middle" x="602.01" y="-29.95" font-family="Times,serif" font-size="10.00">m. 1939, AR</text>
</g>
<!-- G1_FATHER -->
<g id="node3" class="node">
<title>G1_FATHER</title>
<g id="a_node3"><a xlink:href="https://ancestors.familysearch.org/en/94ZN-LGR/james-robert-stinnett-1882-1970" xlink:title="James Robert Stinnett 🔗\nb. 1882, AR\nd. 1970, AR" target="_blank">
<path fill="lightcoral" stroke="black" d="M474.4,-126.05C474.4,-126.05 373,-126.05 373,-126.05 367,-126.05 361,-120.05 361,-114.05 361,-114.05 361,-85.4 361,-85.4 361,-79.4 367,-73.4 373,-73.4 373,-73.4 474.4,-73.4 474.4,-73.4 480.4,-73.4 486.4,-79.4 486.4,-85.4 486.4,-85.4 486.4,-114.05 486.4,-114.05 486.4,-120.05 480.4,-126.05 474.4,-126.05"/>
<text xml:space="preserve" text-anchor="middle" x="423.7" y="-109.35" font-family="Arial" font-size="10.00">James Robert Stinnett 🔗</text>
<text xml:space="preserve" text-anchor="middle" x="423.7" y="-95.1" font-family="Arial" font-size="10.00">b. 1882, AR</text>
<text xml:space="preserve" text-anchor="middle" x="423.7" y="-83.1" font-family="Arial" font-size="10.00">d. 1970, AR</text>
</a>
</g>
</g>
<!-- G1_FATHER&#45;&gt;G0_ME -->
<g id="edge11" class="edge">
<title>G1_FATHER&#45;&gt;G0_ME</title>
<path fill="none" stroke="black" stroke-width="1.5" d="M454.97,-72.95C460.74,-68.2 466.83,-63.18 472.8,-58.26"/>
<polygon fill="black" stroke="black" stroke-width="1.5" points="474.76,-61.18 480.25,-52.12 470.31,-55.78 474.76,-61.18"/>
</g>
<!-- G1_MOTHER -->
<g id="node4" class="node">
<title>G1_MOTHER</title>
<g id="a_node4"><a xlink:href="https://ancestors.familysearch.org/en/L6PQ-JNL/lucy-alice-smith-1883-1929" xlink:title="Lucy Alice Smith 🔗\nb. 1883, AR\nd. 1929, AR" target="_blank">
<path fill="lightcoral" stroke="black" d="M640.03,-126.05C640.03,-126.05 563.38,-126.05 563.38,-126.05 557.38,-126.05 551.38,-120.05 551.38,-114.05 551.38,-114.05 551.38,-85.4 551.38,-85.4 551.38,-79.4 557.38,-73.4 563.38,-73.4 563.38,-73.4 640.03,-73.4 640.03,-73.4 646.03,-73.4 652.03,-79.4 652.03,-85.4 652.03,-85.4 652.03,-114.05 652.03,-114.05 652.03,-120.05 646.03,-126.05 640.03,-126.05"/>
<text xml:space="preserve" text-anchor="middle" x="601.7" y="-109.35" font-family="Arial" font-size="10.00">Lucy Alice Smith 🔗</text>
<text xml:space="preserve" text-anchor="middle" x="601.7" y="-95.1" font-family="Arial" font-size="10.00">b. 1883, AR</text>
<text xml:space="preserve" text-anchor="middle" x="601.7" y="-83.1" font-family="Arial" font-size="10.00">d. 1929, AR</text>
</a>
</g>
</g>
<!-- G1_FATHER&#45;&gt;G1_MOTHER -->
<g id="edge2" class="edge">
<title>G1_FATHER&#45;&gt;G1_MOTHER</title>
<path fill="none" stroke="black" stroke-width="1.5" stroke-dasharray="5,2" d="M486.71,-99.73C507.81,-99.73 531.05,-99.73 551.08,-99.73"/>
<text xml:space="preserve" text-anchor="middle" x="518.89" y="-104.48" font-family="Times,serif" font-size="10.00">m. 1905, AR</text>
</g>
<!-- G1_MOTHER&#45;&gt;G0_ME -->
<g id="edge12" class="edge">
<title>G1_MOTHER&#45;&gt;G0_ME</title>
<path fill="none" stroke="black" stroke-width="1.5" d="M569.72,-72.95C563.81,-68.2 557.59,-63.18 551.49,-58.26"/>
<polygon fill="black" stroke="black" stroke-width="1.5" points="553.82,-55.65 543.84,-52.1 549.43,-61.1 553.82,-55.65"/>
</g>
<!-- G2_PATERNAL_GF -->
<g id="node5" class="node">
<title>G2_PATERNAL_GF</title>
<g id="a_node5"><a xlink:href="https://ancestors.familysearch.org/en/LVY3-NS2/franklin-pierce-stinnett-1852-1899" xlink:title="Franklin Pierce Stinnett 🔗\nb. 1852, AR\nd. 1899, AR" target="_blank">
<path fill="lightsteelblue" stroke="black" d="M294.27,-201.7C294.27,-201.7 189.12,-201.7 189.12,-201.7 183.12,-201.7 177.12,-195.7 177.12,-189.7 177.12,-189.7 177.12,-161.05 177.12,-161.05 177.12,-155.05 183.12,-149.05 189.12,-149.05 189.12,-149.05 294.27,-149.05 294.27,-149.05 300.27,-149.05 306.27,-155.05 306.27,-161.05 306.27,-161.05 306.27,-189.7 306.27,-189.7 306.27,-195.7 300.27,-201.7 294.27,-201.7"/>
<text xml:space="preserve" text-anchor="middle" x="241.7" y="-185" font-family="Arial" font-size="10.00">Franklin Pierce Stinnett 🔗</text>
<text xml:space="preserve" text-anchor="middle" x="241.7" y="-170.75" font-family="Arial" font-size="10.00">b. 1852, AR</text>
<text xml:space="preserve" text-anchor="middle" x="241.7" y="-158.75" font-family="Arial" font-size="10.00">d. 1899, AR</text>
</a>
</g>
</g>
<!-- G2_PATERNAL_GF&#45;&gt;G1_FATHER -->
<g id="edge13" class="edge">
<title>G2_PATERNAL_GF&#45;&gt;G1_FATHER</title>
<path fill="none" stroke="black" stroke-width="1.5" d="M305.35,-148.62C319.65,-142.83 334.94,-136.64 349.62,-130.7"/>
<polygon fill="black" stroke="black" stroke-width="1.5" points="350.63,-134.07 358.59,-127.07 348.01,-127.58 350.63,-134.07"/>
</g>
<!-- G2_PATERNAL_GM -->
<g id="node6" class="node">
<title>G2_PATERNAL_GM</title>
<g id="a_node6"><a xlink:href="https://ancestors.familysearch.org/en/L6PQ-J8S/mary-elizabeth-ely-1867-1896" xlink:title="Lutishia &quot;Precious&quot; J Ely 🔗\nb. 1866, AR\nd. 1940, AR" target="_blank">
<path fill="lightsteelblue" stroke="black" d="M494.27,-201.7C494.27,-201.7 383.12,-201.7 383.12,-201.7 377.12,-201.7 371.12,-195.7 371.12,-189.7 371.12,-189.7 371.12,-161.05 371.12,-161.05 371.12,-155.05 377.12,-149.05 383.12,-149.05 383.12,-149.05 494.27,-149.05 494.27,-149.05 500.27,-149.05 506.27,-155.05 506.27,-161.05 506.27,-161.05 506.27,-189.7 506.27,-189.7 506.27,-195.7 500.27,-201.7 494.27,-201.7"/>
<text xml:space="preserve" text-anchor="middle" x="438.7" y="-185" font-family="Arial" font-size="10.00">Lutishia &quot;Precious&quot; J Ely 🔗</text>
<text xml:space="preserve" text-anchor="middle" x="438.7" y="-170.75" font-family="Arial" font-size="10.00">b. 1866, AR</text>
<text xml:space="preserve" text-anchor="middle" x="438.7" y="-158.75" font-family="Arial" font-size="10.00">d. 1940, AR</text>
</a>
</g>
</g>
<!-- G2_PATERNAL_GF&#45;&gt;G2_PATERNAL_GM -->
<g id="edge3" class="edge">
<title>G2_PATERNAL_GF&#45;&gt;G2_PATERNAL_GM</title>
<path fill="none" stroke="black" stroke-width="1.5" stroke-dasharray="5,2" d="M306.75,-175.38C327.26,-175.38 349.97,-175.38 370.68,-175.38"/>
<text xml:space="preserve" text-anchor="middle" x="338.7" y="-180.12" font-family="Times,serif" font-size="10.00">m. 1881, AR</text>
</g>
<!-- G2_PATERNAL_GM&#45;&gt;G1_FATHER -->
<g id="edge14" class="edge">
<title>G2_PATERNAL_GM&#45;&gt;G1_FATHER</title>
<path fill="none" stroke="black" stroke-width="1.5" d="M433.45,-148.62C432.76,-145.19 432.03,-141.63 431.3,-138.06"/>
<polygon fill="black" stroke="black" stroke-width="1.5" points="434.75,-137.42 429.32,-128.32 427.89,-138.82 434.75,-137.42"/>
</g>
<!-- G2_MATERNAL_GF -->
<g id="node7" class="node">
<title>G2_MATERNAL_GF</title>
<g id="a_node7"><a xlink:href="https://ancestors.familysearch.org/en/LHZY-JJN/william-c-smith-1852-1916" xlink:title="William C. Smith 🔗\nb. 1852, TX\nd. 1916, AR" target="_blank">
<path fill="lightsteelblue" stroke="black" d="M622.4,-201.7C622.4,-201.7 545,-201.7 545,-201.7 539,-201.7 533,-195.7 533,-189.7 533,-189.7 533,-161.05 533,-161.05 533,-155.05 539,-149.05 545,-149.05 545,-149.05 622.4,-149.05 622.4,-149.05 628.4,-149.05 634.4,-155.05 634.4,-161.05 634.4,-161.05 634.4,-189.7 634.4,-189.7 634.4,-195.7 628.4,-201.7 622.4,-201.7"/>
<text xml:space="preserve" text-anchor="middle" x="583.7" y="-185" font-family="Arial" font-size="10.00">William C. Smith 🔗</text>
<text xml:space="preserve" text-anchor="middle" x="583.7" y="-170.75" font-family="Arial" font-size="10.00">b. 1852, TX</text>
<text xml:space="preserve" text-anchor="middle" x="583.7" y="-158.75" font-family="Arial" font-size="10.00">d. 1916, AR</text>
</a>
</g>
</g>
<!-- G2_MATERNAL_GF&#45;&gt;G1_MOTHER -->
<g id="edge15" class="edge">
<title>G2_MATERNAL_GF&#45;&gt;G1_MOTHER</title>
<path fill="none" stroke="black" stroke-width="1.5" d="M590,-148.62C590.86,-145.08 591.76,-141.39 592.66,-137.7"/>
<polygon fill="black" stroke="black" stroke-width="1.5" points="595.99,-138.85 594.96,-128.3 589.19,-137.19 595.99,-138.85"/>
</g>
<!-- G2_MATERNAL_GM -->
<g id="node8" class="node">
<title>G2_MATERNAL_GM</title>
<g id="a_node8"><a xlink:href="https://ancestors.familysearch.org/en/KLFH-LP8/victoria-e-pickett-1858-1945" xlink:title="Victoria E. Pickett 🔗\nb. 1858, AR\nd. 1945, AR" target="_blank">
<path fill="lightsteelblue" stroke="black" d="M799.03,-201.7C799.03,-201.7 716.38,-201.7 716.38,-201.7 710.38,-201.7 704.38,-195.7 704.38,-189.7 704.38,-189.7 704.38,-161.05 704.38,-161.05 704.38,-155.05 710.38,-149.05 716.38,-149.05 716.38,-149.05 799.03,-149.05 799.03,-149.05 805.03,-149.05 811.03,-155.05 811.03,-161.05 811.03,-161.05 811.03,-189.7 811.03,-189.7 811.03,-195.7 805.03,-201.7 799.03,-201.7"/>
<text xml:space="preserve" text-anchor="middle" x="757.7" y="-185" font-family="Arial" font-size="10.00">Victoria E. Pickett 🔗</text>
<text xml:space="preserve" text-anchor="middle" x="757.7" y="-170.75" font-family="Arial" font-size="10.00">b. 1858, AR</text>
<text xml:space="preserve" text-anchor="middle" x="757.7" y="-158.75" font-family="Arial" font-size="10.00">d. 1945, AR</text>
</a>
</g>
</g>
<!-- G2_MATERNAL_GF&#45;&gt;G2_MATERNAL_GM -->
<g id="edge4" class="edge">
<title>G2_MATERNAL_GF&#45;&gt;G2_MATERNAL_GM</title>
<path fill="none" stroke="black" stroke-width="1.5" stroke-dasharray="5,2" d="M634.5,-175.38C656.36,-175.38 681.94,-175.38 704.11,-175.38"/>
<text xml:space="preserve" text-anchor="middle" x="669.39" y="-180.12" font-family="Times,serif" font-size="10.00">m. ~1875, AR</text>
</g>
<!-- G2_MATERNAL_GM&#45;&gt;G1_MOTHER -->
<g id="edge16" class="edge">
<title>G2_MATERNAL_GM&#45;&gt;G1_MOTHER</title>
<path fill="none" stroke="black" stroke-width="1.5" d="M704.01,-149.03C690.93,-142.85 676.83,-136.2 663.41,-129.86"/>
<polygon fill="black" stroke="black" stroke-width="1.5" points="664.92,-126.7 654.38,-125.6 661.93,-133.03 664.92,-126.7"/>
</g>
<!-- G3_STINNETT_GGF -->
<g id="node9" class="node">
<title>G3_STINNETT_GGF</title>
<g id="a_node9"><a xlink:href="https://www.findagrave.com/memorial/208534647/james-monroe-stinnett?utm_source=chatgpt.com" xlink:title="Judge James Monroe Stinnett 🔗\nb. 1820, TN\nd. 1900, AR" target="_blank">
<path fill="lightgreen" stroke="black" d="M164.52,-285.35C164.52,-285.35 30.87,-285.35 30.87,-285.35 24.88,-285.35 18.87,-279.35 18.87,-273.35 18.87,-273.35 18.87,-244.7 18.87,-244.7 18.87,-238.7 24.87,-232.7 30.87,-232.7 30.87,-232.7 164.52,-232.7 164.52,-232.7 170.52,-232.7 176.52,-238.7 176.52,-244.7 176.52,-244.7 176.52,-273.35 176.52,-273.35 176.52,-279.35 170.52,-285.35 164.52,-285.35"/>
<text xml:space="preserve" text-anchor="middle" x="97.7" y="-268.65" font-family="Arial" font-size="10.00">Judge James Monroe Stinnett 🔗</text>
<text xml:space="preserve" text-anchor="middle" x="97.7" y="-254.4" font-family="Arial" font-size="10.00">b. 1820, TN</text>
<text xml:space="preserve" text-anchor="middle" x="97.7" y="-242.4" font-family="Arial" font-size="10.00">d. 1900, AR</text>
</a>
</g>
</g>
<!-- G3_STINNETT_GGF&#45;&gt;G2_PATERNAL_GF -->
<g id="edge17" class="edge">
<title>G3_STINNETT_GGF&#45;&gt;G2_PATERNAL_GF</title>
<path fill="none" stroke="black" stroke-width="1.5" d="M142.87,-232.41C156.41,-224.74 171.42,-216.22 185.58,-208.2"/>
<polygon fill="black" stroke="black" stroke-width="1.5" points="187.25,-211.27 194.22,-203.3 183.8,-205.18 187.25,-211.27"/>
</g>
<!-- G3_PICKETT_GGM -->
<g id="node10" class="node">
<title>G3_PICKETT_GGM</title>
<g id="a_node10"><a xlink:href="https://www.findagrave.com/memorial/208534639/joanna_eliza_jane-stinnett" xlink:title="Joanna Eliza Jane Pickett 🔗\nb. 1830, TN\nd. 1898, AR" target="_blank">
<path fill="lightgreen" stroke="black" d="M333.27,-285.35C333.27,-285.35 216.12,-285.35 216.12,-285.35 210.12,-285.35 204.12,-279.35 204.12,-273.35 204.12,-273.35 204.12,-244.7 204.12,-244.7 204.12,-238.7 210.12,-232.7 216.12,-232.7 216.12,-232.7 333.27,-232.7 333.27,-232.7 339.27,-232.7 345.27,-238.7 345.27,-244.7 345.27,-244.7 345.27,-273.35 345.27,-273.35 345.27,-279.35 339.27,-285.35 333.27,-285.35"/>
<text xml:space="preserve" text-anchor="middle" x="274.7" y="-268.65" font-family="Arial" font-size="10.00">Joanna Eliza Jane Pickett 🔗</text>
<text xml:space="preserve" text-anchor="middle" x="274.7" y="-254.4" font-family="Arial" font-size="10.00">b. 1830, TN</text>
<text xml:space="preserve" text-anchor="middle" x="274.7" y="-242.4" font-family="Arial" font-size="10.00">d. 1898, AR</text>
</a>
</g>
</g>
<!-- G3_STINNETT_GGF&#45;&gt;G3_PICKETT_GGM -->
<g id="edge5" class="edge">
<title>G3_STINNETT_GGF&#45;&gt;G3_PICKETT_GGM</title>
<path fill="none" stroke="black" stroke-width="1.5" stroke-dasharray="5,2" d="M176.87,-259.02C185.91,-259.02 194.96,-259.02 204,-259.02"/>
</g>
<!-- G3_PICKETT_GGM&#45;&gt;G2_PATERNAL_GF -->
<g id="edge18" class="edge">
<title>G3_PICKETT_GGM&#45;&gt;G2_PATERNAL_GF</title>
<path fill="none" stroke="black" stroke-width="1.5" d="M264.44,-232.64C261.92,-226.4 259.17,-219.6 256.48,-212.95"/>
<polygon fill="black" stroke="black" stroke-width="1.5" points="259.91,-212.09 252.92,-204.13 253.42,-214.72 259.91,-212.09"/>
</g>
<!-- G3_ELY_GGF -->
<g id="node11" class="node tree&#45;connection">
<title>G3_ELY_GGF</title>
<g id="a_node11"><a xlink:href="https://ancestors.familysearch.org/en/L89W-T4N/rev-robert-n-ely-1842-1880" xlink:title="Rev. Robert N. Ely 🔗\nb. 1842, VA\nd. 1880, AR" target="_blank">
<path fill="lightgreen" stroke="black" d="M468.4,-285.35C468.4,-285.35 379,-285.35 379,-285.35 373,-285.35 367,-279.35 367,-273.35 367,-273.35 367,-244.7 367,-244.7 367,-238.7 373,-232.7 379,-232.7 379,-232.7 468.4,-232.7 468.4,-232.7 474.4,-232.7 480.4,-238.7 480.4,-244.7 480.4,-244.7 480.4,-273.35 480.4,-273.35 480.4,-279.35 474.4,-285.35 468.4,-285.35"/>
<path fill="none" stroke="black" d="M472.4,-289.35C472.4,-289.35 375,-289.35 375,-289.35 369,-289.35 363,-283.35 363,-277.35 363,-277.35 363,-240.7 363,-240.7 363,-234.7 369,-228.7 375,-228.7 375,-228.7 472.4,-228.7 472.4,-228.7 478.4,-228.7 484.4,-234.7 484.4,-240.7 484.4,-240.7 484.4,-277.35 484.4,-277.35 484.4,-283.35 478.4,-289.35 472.4,-289.35"/>
<path fill="none" stroke="black" d="M476.4,-293.35C476.4,-293.35 371,-293.35 371,-293.35 365,-293.35 359,-287.35 359,-281.35 359,-281.35 359,-236.7 359,-236.7 359,-230.7 365,-224.7 371,-224.7 371,-224.7 476.4,-224.7 476.4,-224.7 482.4,-224.7 488.4,-230.7 488.4,-236.7 488.4,-236.7 488.4,-281.35 488.4,-281.35 488.4,-287.35 482.4,-293.35 476.4,-293.35"/>
<text xml:space="preserve" text-anchor="middle" x="423.7" y="-268.65" font-family="Arial Bold" font-size="10.00">Rev. Robert N. Ely 🔗</text>
<text xml:space="preserve" text-anchor="middle" x="423.7" y="-254.4" font-family="Arial Bold" font-size="10.00">b. 1842, VA</text>
<text xml:space="preserve" text-anchor="middle" x="423.7" y="-242.4" font-family="Arial Bold" font-size="10.00">d. 1880, AR</text>
</a>
</g>
</g>
<!-- G3_ELY_GGF&#45;&gt;G2_PATERNAL_GM -->
<g id="edge19" class="edge">
<title>G3_ELY_GGF&#45;&gt;G2_PATERNAL_GM</title>
<path fill="none" stroke="black" stroke-width="1.5" d="M429.89,-224.34C430.53,-220.84 431.19,-217.27 431.84,-213.73"/>
<polygon fill="black" stroke="black" stroke-width="1.5" points="435.22,-214.7 433.58,-204.23 428.33,-213.43 435.22,-214.7"/>
</g>
<!-- G3_BRUNK_GGM -->
<g id="node12" class="node tree&#45;connection">
<title>G3_BRUNK_GGM</title>
<g id="a_node12"><a xlink:href="https://ancestors.familysearch.org/en/K4X3-J43/charlotte-ann-brunk-ely-1842-1931" xlink:title="Charlotte Ann Brunk 🔗\nb. 1842, VA\nd. 1931, AR" target="_blank">
<path fill="lightgreen" stroke="black" d="M635.28,-285.35C635.28,-285.35 536.12,-285.35 536.12,-285.35 530.12,-285.35 524.12,-279.35 524.12,-273.35 524.12,-273.35 524.12,-244.7 524.12,-244.7 524.12,-238.7 530.12,-232.7 536.12,-232.7 536.12,-232.7 635.28,-232.7 635.28,-232.7 641.28,-232.7 647.28,-238.7 647.28,-244.7 647.28,-244.7 647.28,-273.35 647.28,-273.35 647.28,-279.35 641.28,-285.35 635.28,-285.35"/>
<path fill="none" stroke="black" d="M639.28,-289.35C639.28,-289.35 532.12,-289.35 532.12,-289.35 526.12,-289.35 520.12,-283.35 520.12,-277.35 520.12,-277.35 520.12,-240.7 520.12,-240.7 520.12,-234.7 526.12,-228.7 532.12,-228.7 532.12,-228.7 639.28,-228.7 639.28,-228.7 645.28,-228.7 651.28,-234.7 651.28,-240.7 651.28,-240.7 651.28,-277.35 651.28,-277.35 651.28,-283.35 645.28,-289.35 639.28,-289.35"/>
<path fill="none" stroke="black" d="M643.28,-293.35C643.28,-293.35 528.12,-293.35 528.12,-293.35 522.12,-293.35 516.12,-287.35 516.12,-281.35 516.12,-281.35 516.12,-236.7 516.12,-236.7 516.12,-230.7 522.12,-224.7 528.12,-224.7 528.12,-224.7 643.28,-224.7 643.28,-224.7 649.28,-224.7 655.28,-230.7 655.28,-236.7 655.28,-236.7 655.28,-281.35 655.28,-281.35 655.28,-287.35 649.28,-293.35 643.28,-293.35"/>
<text xml:space="preserve" text-anchor="middle" x="585.7" y="-268.65" font-family="Arial Bold" font-size="10.00">Charlotte Ann Brunk 🔗</text>
<text xml:space="preserve" text-anchor="middle" x="585.7" y="-254.4" font-family="Arial Bold" font-size="10.00">b. 1842, VA</text>
<text xml:space="preserve" text-anchor="middle" x="585.7" y="-242.4" font-family="Arial Bold" font-size="10.00">d. 1931, AR</text>
</a>
</g>
</g>
<!-- G3_ELY_GGF&#45;&gt;G3_BRUNK_GGM -->
<g id="edge6" class="edge">
<title>G3_ELY_GGF&#45;&gt;G3_BRUNK_GGM</title>
<path fill="none" stroke="black" stroke-width="1.5" stroke-dasharray="5,2" d="M488.88,-259.02C497.83,-259.02 506.78,-259.02 515.73,-259.02"/>
</g>
<!-- G3_BRUNK_GGM&#45;&gt;G2_PATERNAL_GM -->
<g id="edge20" class="edge">
<title>G3_BRUNK_GGM&#45;&gt;G2_PATERNAL_GM</title>
<path fill="none" stroke="black" stroke-width="1.5" d="M525.06,-224.34C515.29,-218.92 505.21,-213.32 495.54,-207.94"/>
<polygon fill="black" stroke="black" stroke-width="1.5" points="497.25,-204.89 486.81,-203.1 493.85,-211.01 497.25,-204.89"/>
</g>
<!-- G3_PICKET_GGF -->
<g id="node13" class="node">
<title>G3_PICKET_GGF</title>
<g id="a_node13"><a xlink:href="https://ancestors.familysearch.org/en/K2JG-7PJ/james-montgomery-pickett-1818-1895" xlink:title="James Montgomery Pickett 🔗\nb. 1818, TN\nd. 1895, AR" target="_blank">
<path fill="lightgreen" stroke="black" d="M804.28,-285.35C804.28,-285.35 681.12,-285.35 681.12,-285.35 675.12,-285.35 669.12,-279.35 669.12,-273.35 669.12,-273.35 669.12,-244.7 669.12,-244.7 669.12,-238.7 675.12,-232.7 681.12,-232.7 681.12,-232.7 804.28,-232.7 804.28,-232.7 810.28,-232.7 816.28,-238.7 816.28,-244.7 816.28,-244.7 816.28,-273.35 816.28,-273.35 816.28,-279.35 810.28,-285.35 804.28,-285.35"/>
<text xml:space="preserve" text-anchor="middle" x="742.7" y="-268.65" font-family="Arial" font-size="10.00">James Montgomery Pickett 🔗</text>
<text xml:space="preserve" text-anchor="middle" x="742.7" y="-254.4" font-family="Arial" font-size="10.00">b. 1818, TN</text>
<text xml:space="preserve" text-anchor="middle" x="742.7" y="-242.4" font-family="Arial" font-size="10.00">d. 1895, AR</text>
</a>
</g>
</g>
<!-- G3_PICKET_GGF&#45;&gt;G2_MATERNAL_GM -->
<g id="edge21" class="edge">
<title>G3_PICKET_GGF&#45;&gt;G2_MATERNAL_GM</title>
<path fill="none" stroke="black" stroke-width="1.5" d="M747.36,-232.64C748.45,-226.7 749.64,-220.26 750.8,-213.92"/>
<polygon fill="black" stroke="black" stroke-width="1.5" points="754.21,-214.73 752.58,-204.26 747.33,-213.46 754.21,-214.73"/>
</g>
<!-- G3_DAVENPORT_GGM -->
<g id="node14" class="node">
<title>G3_DAVENPORT_GGM</title>
<g id="a_node14"><a xlink:href="https://ancestors.familysearch.org/en/9V5Y-5BX/julia-ann-davenport-1824-1907" xlink:title="Julia Ann Davenport 🔗\nb. 1824\nd. 1907" target="_blank">
<path fill="lightgreen" stroke="black" d="M947.15,-285.35C947.15,-285.35 856.25,-285.35 856.25,-285.35 850.25,-285.35 844.25,-279.35 844.25,-273.35 844.25,-273.35 844.25,-244.7 844.25,-244.7 844.25,-238.7 850.25,-232.7 856.25,-232.7 856.25,-232.7 947.15,-232.7 947.15,-232.7 953.15,-232.7 959.15,-238.7 959.15,-244.7 959.15,-244.7 959.15,-273.35 959.15,-273.35 959.15,-279.35 953.15,-285.35 947.15,-285.35"/>
<text xml:space="preserve" text-anchor="middle" x="901.7" y="-268.65" font-family="Arial" font-size="10.00">Julia Ann Davenport 🔗</text>
<text xml:space="preserve" text-anchor="middle" x="901.7" y="-254.4" font-family="Arial" font-size="10.00">b. 1824</text>
<text xml:space="preserve" text-anchor="middle" x="901.7" y="-242.4" font-family="Arial" font-size="10.00">d. 1907</text>
</a>
</g>
</g>
<!-- G3_PICKET_GGF&#45;&gt;G3_DAVENPORT_GGM -->
<g id="edge7" class="edge">
<title>G3_PICKET_GGF&#45;&gt;G3_DAVENPORT_GGM</title>
<path fill="none" stroke="black" stroke-width="1.5" stroke-dasharray="5,2" d="M816.61,-259.02C825.7,-259.02 834.78,-259.02 843.87,-259.02"/>
</g>
<!-- G3_DAVENPORT_GGM&#45;&gt;G2_MATERNAL_GM -->
<g id="edge22" class="edge">
<title>G3_DAVENPORT_GGM&#45;&gt;G2_MATERNAL_GM</title>
<path fill="none" stroke="black" stroke-width="1.5" d="M856.53,-232.41C842.99,-224.74 827.98,-216.22 813.82,-208.2"/>
<polygon fill="black" stroke="black" stroke-width="1.5" points="815.6,-205.18 805.18,-203.3 812.15,-211.27 815.6,-205.18"/>
</g>
<!-- G4_STINNETT -->
<g id="node15" class="node">
<title>G4_STINNETT</title>
<path fill="wheat" stroke="black" d="M71.4,-367.87C71.4,-367.87 12,-367.87 12,-367.87 6,-367.87 0,-361.87 0,-355.87 0,-355.87 0,-329.47 0,-329.47 0,-323.47 6,-317.47 12,-317.47 12,-317.47 71.4,-317.47 71.4,-317.47 77.4,-317.47 83.4,-323.47 83.4,-329.47 83.4,-329.47 83.4,-355.87 83.4,-355.87 83.4,-361.87 77.4,-367.87 71.4,-367.87"/>
<text xml:space="preserve" text-anchor="middle" x="41.7" y="-351.17" font-family="Arial" font-size="10.00">William Stinnett</text>
<text xml:space="preserve" text-anchor="middle" x="41.7" y="-339.17" font-family="Arial" font-size="10.00">b. XXXX</text>
<text xml:space="preserve" text-anchor="middle" x="41.7" y="-327.17" font-family="Arial" font-size="10.00">d. 1847, TN</text>
</g>
<!-- G4_STINNETT&#45;&gt;G3_STINNETT_GGF -->
<g id="edge23" class="edge">
<title>G4_STINNETT&#45;&gt;G3_STINNETT_GGF</title>
<path fill="none" stroke="black" stroke-width="1.5" d="M58.5,-317.18C63.14,-310.41 68.28,-302.92 73.26,-295.66"/>
<polygon fill="black" stroke="black" stroke-width="1.5" points="76.08,-297.74 78.85,-287.51 70.31,-293.78 76.08,-297.74"/>
</g>
<!-- G4_SMITH -->
<g id="node16" class="node">
<title>G4_SMITH</title>
<path fill="wheat" stroke="black" d="M184.15,-367.87C184.15,-367.87 123.25,-367.87 123.25,-367.87 117.25,-367.87 111.25,-361.87 111.25,-355.87 111.25,-355.87 111.25,-329.47 111.25,-329.47 111.25,-323.47 117.25,-317.47 123.25,-317.47 123.25,-317.47 184.15,-317.47 184.15,-317.47 190.15,-317.47 196.15,-323.47 196.15,-329.47 196.15,-329.47 196.15,-355.87 196.15,-355.87 196.15,-361.87 190.15,-367.87 184.15,-367.87"/>
<text xml:space="preserve" text-anchor="middle" x="153.7" y="-351.17" font-family="Arial" font-size="10.00">Catherine Smith</text>
<text xml:space="preserve" text-anchor="middle" x="153.7" y="-339.17" font-family="Arial" font-size="10.00">b. 1801, TN</text>
<text xml:space="preserve" text-anchor="middle" x="153.7" y="-327.17" font-family="Arial" font-size="10.00">d. 1848, TN</text>
</g>
<!-- G4_STINNETT&#45;&gt;G4_SMITH -->
<g id="edge8" class="edge">
<title>G4_STINNETT&#45;&gt;G4_SMITH</title>
<path fill="none" stroke="black" stroke-width="1.5" stroke-dasharray="5,2" d="M83.7,-342.67C92.72,-342.67 101.75,-342.67 110.77,-342.67"/>
</g>
<!-- G4_SMITH&#45;&gt;G3_STINNETT_GGF -->
<g id="edge24" class="edge">
<title>G4_SMITH&#45;&gt;G3_STINNETT_GGF</title>
<path fill="none" stroke="black" stroke-width="1.5" d="M136.9,-317.18C132.26,-310.41 127.12,-302.92 122.14,-295.66"/>
<polygon fill="black" stroke="black" stroke-width="1.5" points="125.09,-293.78 116.55,-287.51 119.32,-297.74 125.09,-293.78"/>
</g>
<!-- G4_PICKET -->
<g id="node17" class="node">
<title>G4_PICKET</title>
<g id="a_node17"><a xlink:href="https://ancestors.familysearch.org/en/LJJN-QYZ/edward-charles-pickett-1790-1849" xlink:title="Edward Charles Pickett 🔗\nb. 1790, TN\nd. 1849, TN" target="_blank">
<path fill="wheat" stroke="black" d="M367.02,-369C367.02,-369 260.38,-369 260.38,-369 254.38,-369 248.38,-363 248.38,-357 248.38,-357 248.38,-328.35 248.38,-328.35 248.38,-322.35 254.38,-316.35 260.38,-316.35 260.38,-316.35 367.02,-316.35 367.02,-316.35 373.02,-316.35 379.02,-322.35 379.02,-328.35 379.02,-328.35 379.02,-357 379.02,-357 379.02,-363 373.02,-369 367.02,-369"/>
<text xml:space="preserve" text-anchor="middle" x="313.7" y="-352.3" font-family="Arial" font-size="10.00">Edward Charles Pickett 🔗</text>
<text xml:space="preserve" text-anchor="middle" x="313.7" y="-338.05" font-family="Arial" font-size="10.00">b. 1790, TN</text>
<text xml:space="preserve" text-anchor="middle" x="313.7" y="-326.05" font-family="Arial" font-size="10.00">d. 1849, TN</text>
</a>
</g>
</g>
<!-- G4_PICKET&#45;&gt;G3_PICKETT_GGM -->
<g id="edge25" class="edge">
<title>G4_PICKET&#45;&gt;G3_PICKETT_GGM</title>
<path fill="none" stroke="black" stroke-width="1.5" d="M301.57,-316.29C298.59,-310.05 295.35,-303.25 292.17,-296.6"/>
<polygon fill="black" stroke="black" stroke-width="1.5" points="295.4,-295.24 287.93,-287.73 289.08,-298.26 295.4,-295.24"/>
</g>
<!-- G4_PICKET&#45;&gt;G3_PICKET_GGF -->
<g id="edge27" class="edge">
<title>G4_PICKET&#45;&gt;G3_PICKET_GGF</title>
<path fill="none" stroke="black" stroke-width="1.5" d="M379.43,-334.61C465.28,-325.04 610.77,-307.51 662.7,-293.35 666.67,-292.27 670.7,-291.04 674.74,-289.7"/>
<polygon fill="black" stroke="black" stroke-width="1.5" points="675.67,-293.08 683.94,-286.46 673.34,-286.48 675.67,-293.08"/>
</g>
<!-- G4_SANDERSON -->
<g id="node18" class="node">
<title>G4_SANDERSON</title>
<path fill="wheat" stroke="black" d="M649.9,-367.87C649.9,-367.87 569.5,-367.87 569.5,-367.87 563.5,-367.87 557.5,-361.87 557.5,-355.87 557.5,-355.87 557.5,-329.47 557.5,-329.47 557.5,-323.47 563.5,-317.47 569.5,-317.47 569.5,-317.47 649.9,-317.47 649.9,-317.47 655.9,-317.47 661.9,-323.47 661.9,-329.47 661.9,-329.47 661.9,-355.87 661.9,-355.87 661.9,-361.87 655.9,-367.87 649.9,-367.87"/>
<text xml:space="preserve" text-anchor="middle" x="609.7" y="-351.17" font-family="Arial" font-size="10.00">Elizabeth Sanderson</text>
<text xml:space="preserve" text-anchor="middle" x="609.7" y="-339.17" font-family="Arial" font-size="10.00">b. 1791</text>
<text xml:space="preserve" text-anchor="middle" x="609.7" y="-327.17" font-family="Arial" font-size="10.00">d. 1850 or 1860</text>
</g>
<!-- G4_PICKET&#45;&gt;G4_SANDERSON -->
<g id="edge9" class="edge">
<title>G4_PICKET&#45;&gt;G4_SANDERSON</title>
<path fill="none" stroke="black" stroke-width="1.5" stroke-dasharray="5,2" d="M379.32,-342.67C438.56,-342.67 497.81,-342.67 557.05,-342.67"/>
</g>
<!-- G4_SANDERSON&#45;&gt;G3_PICKETT_GGM -->
<g id="edge26" class="edge">
<title>G4_SANDERSON&#45;&gt;G3_PICKETT_GGM</title>
<path fill="none" stroke="black" stroke-width="1.5" d="M557.48,-335.38C504.77,-328.22 421.42,-314.67 351.7,-293.35 348.26,-292.3 344.77,-291.14 341.26,-289.9"/>
<polygon fill="black" stroke="black" stroke-width="1.5" points="342.8,-286.74 332.21,-286.52 340.35,-293.3 342.8,-286.74"/>
</g>
<!-- G4_SANDERSON&#45;&gt;G3_PICKET_GGF -->
<g id="edge28" class="edge">
<title>G4_SANDERSON&#45;&gt;G3_PICKET_GGF</title>
<path fill="none" stroke="black" stroke-width="1.5" d="M649.6,-317.18C662.53,-309.24 677.06,-300.32 690.73,-291.93"/>
<polygon fill="black" stroke="black" stroke-width="1.5" points="692.35,-295.04 699.04,-286.83 688.69,-289.08 692.35,-295.04"/>
</g>
<!-- G5_PICKET -->
<g id="node19" class="node">
<title>G5_PICKET</title>
<path fill="plum" stroke="black" d="M264.27,-442.4C264.27,-442.4 207.12,-442.4 207.12,-442.4 201.12,-442.4 195.12,-436.4 195.12,-430.4 195.12,-430.4 195.12,-404 195.12,-404 195.12,-398 201.12,-392 207.12,-392 207.12,-392 264.27,-392 264.27,-392 270.27,-392 276.27,-398 276.27,-404 276.27,-404 276.27,-430.4 276.27,-430.4 276.27,-436.4 270.27,-442.4 264.27,-442.4"/>
<text xml:space="preserve" text-anchor="middle" x="235.7" y="-425.7" font-family="Arial" font-size="10.00">Edward Pickett</text>
<text xml:space="preserve" text-anchor="middle" x="235.7" y="-413.7" font-family="Arial" font-size="10.00">b. ~1765</text>
<text xml:space="preserve" text-anchor="middle" x="235.7" y="-401.7" font-family="Arial" font-size="10.00">d. ~1827</text>
</g>
<!-- G5_PICKET&#45;&gt;G4_PICKET -->
<g id="edge29" class="edge">
<title>G5_PICKET&#45;&gt;G4_PICKET</title>
<path fill="none" stroke="black" stroke-width="1.5" d="M262.11,-391.65C266.91,-387.18 272.01,-382.44 277.05,-377.76"/>
<polygon fill="black" stroke="black" stroke-width="1.5" points="279.38,-380.36 284.32,-370.99 274.62,-375.23 279.38,-380.36"/>
</g>
<!-- G5_DOLITTLE -->
<g id="node20" class="node">
<title>G5_DOLITTLE</title>
<path fill="plum" stroke="black" d="M416.02,-442.4C416.02,-442.4 315.38,-442.4 315.38,-442.4 309.38,-442.4 303.38,-436.4 303.38,-430.4 303.38,-430.4 303.38,-404 303.38,-404 303.38,-398 309.38,-392 315.38,-392 315.38,-392 416.02,-392 416.02,-392 422.02,-392 428.02,-398 428.02,-404 428.02,-404 428.02,-430.4 428.02,-430.4 428.02,-436.4 422.02,-442.4 416.02,-442.4"/>
<text xml:space="preserve" text-anchor="middle" x="365.7" y="-425.7" font-family="Arial" font-size="10.00">Elizabeth &quot;Betsy&quot; Dolittle</text>
<text xml:space="preserve" text-anchor="middle" x="365.7" y="-413.7" font-family="Arial" font-size="10.00">b. ~1775</text>
<text xml:space="preserve" text-anchor="middle" x="365.7" y="-401.7" font-family="Arial" font-size="10.00">d. ~1859</text>
</g>
<!-- G5_PICKET&#45;&gt;G5_DOLITTLE -->
<g id="edge10" class="edge">
<title>G5_PICKET&#45;&gt;G5_DOLITTLE</title>
<path fill="none" stroke="black" stroke-width="1.5" stroke-dasharray="5,2" d="M276.58,-417.2C285.4,-417.2 294.22,-417.2 303.04,-417.2"/>
</g>
<!-- G5_DOLITTLE&#45;&gt;G4_PICKET -->
<g id="edge30" class="edge">
<title>G5_DOLITTLE&#45;&gt;G4_PICKET</title>
<path fill="none" stroke="black" stroke-width="1.5" d="M348.1,-391.65C345.21,-387.62 342.17,-383.39 339.15,-379.16"/>
<polygon fill="black" stroke="black" stroke-width="1.5" points="342.17,-377.37 333.5,-371.29 336.48,-381.45 342.17,-377.37"/>
</g>
</g>
</svg>
